<svg width="750" height="539" viewBox="0 0 750 539" fill="none" xmlns="http://www.w3.org/2000/svg">
<rect width="750" height="538.8" rx="6" fill="#F6F8FA"/>
<g opacity="0.15">
<path d="M356.01 369.98C405.169 369.98 445.02 316.259 445.02 249.99C445.02 183.721 405.169 130 356.01 130C306.851 130 267 183.721 267 249.99C267 316.259 306.851 369.98 356.01 369.98Z" fill="url(#paint0_radial_26_704)" style="mix-blend-mode:color-dodge"/>
</g>
<path style="mix-blend-mode:color-dodge" opacity="0.5" d="M388.559 336.086C433.224 316.841 464.354 289.456 458.09 274.92C451.827 260.383 410.542 264.2 365.877 283.445C321.213 302.69 290.082 330.075 296.346 344.611C302.609 359.148 343.894 355.331 388.559 336.086Z" fill="url(#paint1_radial_26_704)"/>
<g filter="url(#filter0_d_26_704)">
<path d="M373.09 364.65L313.68 329.45L333.56 297.11L392.96 332.31L373.09 364.65Z" fill="url(#paint2_linear_26_704)"/>
<path d="M373.09 364.65L313.68 329.45L333.56 297.11L392.96 332.31L373.09 364.65Z" fill="url(#paint3_linear_26_704)"/>
<path d="M314.13 329.29L373.393 364.526L353.51 376.05L294.12 340.84L314.13 329.29Z" fill="url(#paint4_linear_26_704)"/>
<path d="M314.13 329.29L373.393 364.526L353.51 376.05L294.12 340.84L314.13 329.29Z" fill="url(#paint5_linear_26_704)"/>
<path d="M257.61 371.929L316.404 406.876L301.66 432.17L242.28 396.95L257.61 371.929Z" fill="url(#paint6_linear_26_704)"/>
<path d="M257.61 371.929L316.404 406.876L301.66 432.17L242.28 396.95L257.61 371.929Z" fill="url(#paint7_linear_26_704)"/>
<path d="M257.612 371.931L316.332 406.931L345.314 389.314L285.922 354.151L257.612 371.931Z" fill="url(#paint8_linear_26_704)"/>
<path d="M257.612 371.931L316.332 406.931L345.314 389.314L285.922 354.151L257.612 371.931Z" fill="url(#paint9_linear_26_704)"/>
<path d="M301.73 438.8L242.32 403.6V396.9L301.73 432.1V438.8Z" fill="url(#paint10_linear_26_704)"/>
<path d="M301.73 438.8L242.32 403.6V396.9L301.73 432.1V438.8Z" fill="url(#paint11_linear_26_704)"/>
<path d="M345.33 389.35L285.92 354.15L294.42 340.65L353.83 375.85L345.33 389.35Z" fill="url(#paint12_linear_26_704)"/>
<path d="M345.33 389.35L285.92 354.15L294.42 340.65L353.83 375.85L345.33 389.35Z" fill="url(#paint13_linear_26_704)"/>
<path d="M392.1 264.1L450.83 299.1L393.16 332.5L333.78 297.29L392.1 264.1Z" fill="url(#paint14_linear_26_704)"/>
<path d="M392.1 264.1L450.83 299.1L393.16 332.5L333.78 297.29L392.1 264.1Z" fill="url(#paint15_linear_26_704)"/>
<path d="M392.1 264.1L450.83 299.1L474.29 261.9L414.91 226.69L392.1 264.1Z" fill="url(#paint16_linear_26_704)"/>
<path d="M516.16 238.32L521.32 235.93L450.01 100L444.39 101.94L516.16 238.32Z" fill="url(#paint17_linear_26_704)"/>
<path d="M474.1 214.04V262.16L450.824 299.105L392.96 332.31L373.08 364.1L353.52 376.04L345.02 389.44L316.2 406.6L301.72 432.1V438.8L478.99 337.6V212.73L474.1 214.04Z" fill="url(#paint18_linear_26_704)"/>
<path d="M414.97 179.9V228.2L474.1 262.34V214.04L516.16 238.32L444.468 101.877L372.91 155.62L414.97 179.9Z" fill="url(#paint19_linear_26_704)"/>
</g>
<g style="mix-blend-mode:multiply">
<path opacity="0.02" d="M371.68 186.92C371.68 218.27 393.91 256.61 421.24 272.38C428.72 276.71 436.12 278.99 442.62 278.99C458.08 278.99 467.68 266.33 467.68 245.94C467.68 214.59 445.45 176.25 418.12 160.47C410.64 156.15 403.24 153.87 396.73 153.87C381.28 153.87 371.68 166.53 371.68 186.92Z" fill="#0A34A1"/>
<path opacity="0.04" d="M372.84 188.25C372.84 218.68 394.42 255.88 420.93 271.19C428.19 275.39 435.37 277.6 441.69 277.6C456.69 277.6 466 265.31 466 245.54C466 215.11 444.42 177.91 417.91 162.6C410.65 158.4 403.47 156.19 397.16 156.19C382.16 156.19 372.84 168.48 372.84 188.25Z" fill="#0A34A1"/>
<path opacity="0.05" d="M374.01 189.59C374.01 219.09 394.92 255.16 420.63 270C427.63 274.06 434.63 276.21 440.75 276.21C455.28 276.21 464.32 264.3 464.32 245.13C464.32 215.63 443.4 179.56 417.69 164.72C410.69 160.66 403.69 158.51 397.58 158.51C383.04 158.51 374.01 170.42 374.01 189.59Z" fill="#0A34A1"/>
<path opacity="0.07" d="M375.17 190.93C375.17 219.5 395.43 254.43 420.33 268.81C427.14 272.74 433.88 274.81 439.81 274.81C453.89 274.81 462.64 263.28 462.64 244.71C462.64 216.14 442.38 181.21 417.48 166.83C410.67 162.9 403.93 160.83 398 160.83C383.92 160.83 375.17 172.36 375.17 190.93Z" fill="#0A34A1"/>
<path opacity="0.09" d="M376.33 192.27C376.33 219.91 395.93 253.71 420.02 267.62C426.62 271.42 433.13 273.44 438.87 273.44C452.49 273.44 460.96 262.28 460.96 244.31C460.96 216.67 441.36 182.87 417.27 168.97C410.68 165.16 404.16 163.14 398.42 163.14C384.8 163.14 376.33 174.31 376.33 192.27Z" fill="#0A34A1"/>
<path opacity="0.11" d="M377.5 193.61C377.5 220.32 396.44 252.98 419.72 266.42C426.09 270.1 432.39 272.05 437.93 272.05C451.1 272.05 459.28 261.26 459.28 243.9C459.28 217.19 440.34 184.53 417.06 171.09C410.69 167.41 404.39 165.46 398.84 165.46C385.68 165.46 377.5 176.25 377.5 193.61Z" fill="#0A34A1"/>
<path opacity="0.13" d="M378.66 195C378.66 220.78 396.94 252.31 419.41 265.28C425.56 268.83 431.64 270.71 437 270.71C449.7 270.71 457.6 260.3 457.6 243.54C457.6 217.76 439.32 186.23 416.85 173.26C410.69 169.71 404.61 167.83 399.26 167.83C386.56 167.78 378.66 178.19 378.66 195Z" fill="#0A34A1"/>
<path opacity="0.15" d="M379.82 196.29C379.82 221.14 397.45 251.53 419.11 264.04C425.04 267.46 430.9 269.27 436.06 269.27C448.31 269.27 455.92 259.27 455.92 243.08C455.92 218.23 438.29 187.84 416.63 175.33C410.7 171.91 404.84 170.1 399.68 170.1C387.43 170.1 379.82 180.13 379.82 196.29Z" fill="#0A34A1"/>
<path opacity="0.16" d="M380.99 197.63C380.99 221.55 397.99 250.81 418.8 262.85C424.51 266.14 430.15 267.85 435.12 267.85C446.91 267.85 454.24 258.19 454.24 242.64C454.24 218.72 437.24 189.46 416.42 177.43C410.71 174.13 405.07 172.43 400.1 172.43C388.31 172.42 380.99 182.08 380.99 197.63Z" fill="#0A34A1"/>
<path opacity="0.18" d="M382.15 199C382.15 222 398.46 250.11 418.5 261.68C423.98 264.85 429.41 266.53 434.18 266.53C445.51 266.53 452.56 257.24 452.56 242.29C452.56 219.29 436.25 191.18 416.21 179.61C410.72 176.44 405.3 174.77 400.53 174.77C389.19 174.74 382.15 184 382.15 199Z" fill="#0A34A1"/>
<path opacity="0.2" d="M383.31 200.31C383.31 222.37 398.96 249.36 418.19 260.46C423.46 263.46 428.66 265.11 433.24 265.11C444.12 265.11 450.88 256.2 450.88 241.85C450.88 219.79 435.23 192.85 416 181.7C410.73 178.7 405.53 177.05 401 177.05C390.07 177.05 383.31 186 383.31 200.31Z" fill="#0A34A1"/>
</g>
<path style="mix-blend-mode:multiply" opacity="0.83" d="M405.04 322.64C426.496 322.64 443.89 315.4 443.89 306.47C443.89 297.54 426.496 290.3 405.04 290.3C383.584 290.3 366.19 297.54 366.19 306.47C366.19 315.4 383.584 322.64 405.04 322.64Z" fill="url(#paint20_radial_26_704)"/>
<path d="M376.99 173.63C344.55 154.9 318.26 169.9 318.26 207.12C318.26 244.34 344.55 289.69 376.99 308.42C409.43 327.15 435.72 312.15 435.72 274.93C435.72 237.71 409.43 192.36 376.99 173.63ZM376.99 287.68C354.53 274.68 336.33 243.32 336.33 217.55C336.33 191.78 354.53 181.4 376.99 194.37C399.45 207.34 417.65 238.73 417.65 264.5C417.65 290.27 399.43 300.64 376.99 287.68Z" fill="url(#paint21_linear_26_704)"/>
<path d="M371.86 176.61C339.43 157.89 313.13 172.88 313.13 210.1C313.13 247.32 339.43 292.67 371.86 311.4C404.29 330.13 430.59 315.14 430.59 277.91C430.59 240.68 404.29 195.34 371.86 176.61Z" fill="url(#paint22_linear_26_704)"/>
<g style="mix-blend-mode:color-dodge" opacity="0.5">
<path d="M372.73 176.12C356.28 166.62 341.41 165.8 330.73 172.12C341.32 166.32 355.83 167.34 371.84 176.58C404.27 195.31 430.57 240.66 430.57 277.88C430.57 296.23 424.18 309.17 413.82 315.34C424.69 309.34 431.44 296.24 431.44 277.34C431.43 240.2 405.16 194.84 372.73 176.12Z" fill="url(#paint23_radial_26_704)"/>
</g>
<path style="mix-blend-mode:screen" d="M276.411 311.59C288.698 304.485 296.339 294.713 293.478 289.765C290.616 284.817 278.336 286.565 266.049 293.671C253.761 300.776 246.12 310.548 248.982 315.496C251.843 320.444 264.124 318.696 276.411 311.59Z" fill="url(#paint24_radial_26_704)"/>
<path d="M413.65 315.49C436.44 302.167 436.207 259.363 413.129 219.885C390.05 180.407 352.866 159.204 330.075 172.527C307.284 185.85 307.518 228.654 330.596 268.132C353.675 307.611 390.859 328.814 413.65 315.49Z" fill="#001C64"/>
<path d="M410.185 312.248C431.857 299.648 431.733 259 409.907 221.459C388.08 183.917 352.817 163.699 331.145 176.299C309.472 188.9 309.597 229.547 331.423 267.089C353.249 304.63 388.512 324.848 410.185 312.248Z" fill="url(#paint25_radial_26_704)"/>
<path d="M406.049 302.489C424.697 291.588 424.507 256.569 405.626 224.271C386.746 191.973 356.323 174.627 337.676 185.528C319.028 196.429 319.218 231.449 338.099 263.747C356.979 296.045 387.402 313.39 406.049 302.489Z" fill="#F1F2F2"/>
<path d="M398.89 292.82C414.369 283.821 414.28 254.79 398.692 227.978C383.104 201.167 357.919 186.727 342.44 195.726C326.961 204.726 327.049 233.757 342.637 260.568C358.226 287.38 383.411 301.82 398.89 292.82Z" fill="url(#paint26_radial_26_704)"/>
<path d="M398.89 292.82C414.369 283.821 414.28 254.79 398.692 227.978C383.104 201.167 357.919 186.727 342.44 195.726C326.961 204.726 327.049 233.757 342.637 260.568C358.226 287.38 383.411 301.82 398.89 292.82Z" fill="url(#paint27_radial_26_704)"/>
<path d="M393.245 283.111C405.627 275.912 405.556 252.688 393.085 231.239C380.614 209.789 360.467 198.237 348.085 205.436C335.702 212.635 335.774 235.859 348.245 257.309C360.715 278.758 380.862 290.31 393.245 283.111Z" fill="#F1F2F2"/>
<path d="M388.956 273.249C398.282 267.797 398.189 250.286 388.749 234.137C379.308 217.988 364.095 209.317 354.769 214.769C345.443 220.221 345.536 237.731 354.976 253.88C364.417 270.029 379.63 278.701 388.956 273.249Z" fill="url(#paint28_radial_26_704)"/>
<path d="M388.956 273.249C398.282 267.797 398.189 250.286 388.749 234.137C379.308 217.988 364.095 209.317 354.769 214.769C345.443 220.221 345.536 237.731 354.976 253.88C364.417 270.029 379.63 278.701 388.956 273.249Z" fill="url(#paint29_radial_26_704)"/>
<path d="M383.258 263.502C389.475 259.868 389.414 248.194 383.12 237.428C376.826 226.662 366.684 220.881 360.467 224.515C354.249 228.15 354.311 239.824 360.605 250.59C366.898 261.356 377.041 267.137 383.258 263.502Z" fill="#F1F2F2"/>
<path d="M377.56 253.755C380.669 251.938 380.638 246.101 377.491 240.718C374.344 235.335 369.273 232.445 366.165 234.262C363.056 236.079 363.087 241.916 366.234 247.299C369.381 252.682 374.452 255.573 377.56 253.755Z" fill="url(#paint30_linear_26_704)"/>
<path style="mix-blend-mode:color-dodge" d="M371.86 179.68C355.01 169.95 339.91 169.77 329.63 177.34C339.87 170.51 354.55 170.98 370.85 180.4C401.85 198.27 426.91 241.57 426.91 277.09C426.91 293.29 421.69 305.09 413.08 311.39C422.29 305.25 427.92 293.19 427.92 276.39C427.92 240.85 402.82 197.55 371.86 179.68Z" fill="url(#paint31_radial_26_704)"/>
<path style="mix-blend-mode:color-dodge" d="M371.86 198.06C359.71 191.06 348.86 190.98 341.49 196.55C348.8 191.72 359.25 192.08 370.85 198.78C392.97 211.55 410.85 242.47 410.85 267.85C410.85 279.28 407.21 287.62 401.18 292.19C407.81 287.81 411.86 279.19 411.86 267.13C411.9 241.75 393.97 210.83 371.86 198.06Z" fill="url(#paint32_radial_26_704)"/>
<path style="mix-blend-mode:color-dodge" d="M371.86 216.44C364.41 212.14 357.75 212.18 353.34 215.75C357.72 212.93 363.95 213.17 370.85 217.16C384.12 224.82 394.85 243.37 394.85 258.6C394.85 265.27 392.78 270.2 389.34 272.98C393.34 270.38 395.85 265.18 395.85 257.88C395.88 242.65 385.13 224.1 371.86 216.44Z" fill="url(#paint33_radial_26_704)"/>
<path style="mix-blend-mode:color-dodge" d="M371.86 234.82C369.2 233.28 366.86 233.42 365.4 234.82C366.83 234.12 368.74 234.28 370.85 235.5C375.27 238.05 378.85 244.23 378.85 249.31C378.904 250.128 378.795 250.95 378.529 251.726C378.263 252.501 377.845 253.217 377.3 253.83C378.87 253.06 379.86 251.25 379.86 248.59C379.87 243.56 376.28 237.37 371.86 234.82Z" fill="url(#paint34_radial_26_704)"/>
<path style="mix-blend-mode:color-dodge" d="M431.335 258.383C440.473 254.772 446.554 248.489 444.919 244.35C443.283 240.21 434.549 239.78 425.412 243.391C416.274 247.001 410.192 253.284 411.828 257.424C413.464 261.564 422.198 261.993 431.335 258.383Z" fill="url(#paint35_radial_26_704)"/>
<path opacity="0.8" d="M252.51 330.77V344.06L259.69 333.27L252.51 330.77Z" fill="#336CB7"/>
<path opacity="0.6" d="M242.74 336.36V349.65L249.92 338.86L242.74 336.36Z" fill="#336CB7"/>
<path opacity="0.4" d="M232.97 341.94V355.24L240.15 344.45L232.97 341.94Z" fill="#336CB7"/>
<path opacity="0.25" d="M223.2 347.53V360.82L230.38 350.04L223.2 347.53Z" fill="#336CB7"/>
<path opacity="0.15" d="M213.43 353.12V366.41L220.6 355.63L213.43 353.12Z" fill="#336CB7"/>
<path opacity="0.8" d="M298.77 234.43V247.72L305.94 236.94L298.77 234.43Z" fill="#336CB7"/>
<path opacity="0.6" d="M289 240.02V253.31L296.17 242.52L289 240.02Z" fill="#336CB7"/>
<path opacity="0.4" d="M279.23 245.61V258.9L286.4 248.11L279.23 245.61Z" fill="#336CB7"/>
<path opacity="0.25" d="M269.45 251.2V264.49L276.63 253.7L269.45 251.2Z" fill="#336CB7"/>
<path opacity="0.15" d="M259.68 256.79V270.08L266.86 259.29L259.68 256.79Z" fill="#336CB7"/>
<path opacity="0.8" d="M258.22 231.38V244.67L265.4 233.88L258.22 231.38Z" fill="#367CD8"/>
<path opacity="0.6" d="M248.45 236.97V250.26L255.63 239.47L248.45 236.97Z" fill="#367CD8"/>
<path opacity="0.4" d="M238.68 242.56V255.85L245.86 245.06L238.68 242.56Z" fill="#367CD8"/>
<path opacity="0.25" d="M228.91 248.15V261.44L236.09 250.65L228.91 248.15Z" fill="#367CD8"/>
<path opacity="0.15" d="M219.14 253.73V267.03L226.31 256.24L219.14 253.73Z" fill="#367CD8"/>
<g opacity="0.8">
<path style="mix-blend-mode:color-dodge" d="M294.42 340.65L353.64 375.35L372.89 364.29L354.08 376.23L345.02 389.44L353.01 376.04L294.42 340.65Z" fill="url(#paint36_radial_26_704)"/>
<path style="mix-blend-mode:color-dodge" d="M333.67 297.03L392.89 331.73L440.83 305.23L393.33 332.6L377.33 357.35L392.26 332.41L333.67 297.03Z" fill="url(#paint37_radial_26_704)"/>
<path style="mix-blend-mode:color-dodge" d="M258.08 372.35L316.14 405.98L340.45 392.23L316.57 406.85L302.32 430.98L315.51 406.66L258.08 372.35Z" fill="url(#paint38_radial_26_704)"/>
<path style="mix-blend-mode:color-dodge" d="M451.08 299.1L474.1 262.34V214.04L473.32 261.6L451.08 299.1Z" fill="url(#paint39_radial_26_704)"/>
<path style="mix-blend-mode:color-dodge" d="M515.82 238.38L444.33 101.79L445.16 101.63L516.49 237.96L515.82 238.38Z" fill="url(#paint40_radial_26_704)"/>
</g>
<g filter="url(#filter1_d_26_704)">
<path d="M503.74 256.69L515.71 263.6L503.74 270.52L491.76 263.6L503.74 256.69Z" fill="url(#paint41_linear_26_704)"/>
<path d="M515.72 361.2L503.74 368.11V270.52L515.72 263.6V361.2Z" fill="url(#paint42_linear_26_704)"/>
<path d="M503.74 368.11L491.76 361.2V263.6L503.74 270.52V368.11Z" fill="url(#paint43_linear_26_704)"/>
<path style="mix-blend-mode:color-dodge" d="M491.76 263.6L503.68 270.02L515.72 263.6L504.1 270.78L503.74 368.11L503.17 270.69L491.76 263.6Z" fill="url(#paint44_radial_26_704)"/>
</g>
<g filter="url(#filter2_d_26_704)">
<path d="M486.57 286.09L498.54 293.01L486.57 299.93L474.6 293.01L486.57 286.09Z" fill="url(#paint45_linear_26_704)"/>
<path d="M498.55 370.76L486.57 377.67V299.93L498.55 293.01V370.76Z" fill="url(#paint46_linear_26_704)"/>
<path d="M486.57 377.67L474.59 370.76V293.01L486.57 299.93V377.67Z" fill="url(#paint47_linear_26_704)"/>
<path style="mix-blend-mode:color-dodge" d="M474.59 293.01L486.51 299.43L498.55 293.01L486.93 300.19L486.57 377.67L486 300.1L474.59 293.01Z" fill="url(#paint48_radial_26_704)"/>
</g>
<g filter="url(#filter3_d_26_704)">
<path d="M469 316.61L480.97 323.53L469 330.44L457.03 323.52L469 316.61Z" fill="url(#paint49_linear_26_704)"/>
<path d="M480.98 380.02L469 386.94V330.44L480.98 323.52V380.02Z" fill="url(#paint50_linear_26_704)"/>
<path d="M469 386.94L457.03 380.02V323.52L469 330.44V386.94Z" fill="url(#paint51_linear_26_704)"/>
<path style="mix-blend-mode:color-dodge" d="M457.03 323.52L468.94 329.94L480.98 323.52L469.37 330.7L469 386.94L468.44 330.61L457.03 323.52Z" fill="url(#paint52_radial_26_704)"/>
</g>
<g filter="url(#filter4_d_26_704)">
<path d="M451.65 350.01L463.62 356.93L451.65 363.85L439.68 356.93L451.65 350.01Z" fill="url(#paint53_linear_26_704)"/>
<path d="M451.65 383.66L463.62 390.58L451.65 397.49L439.68 390.57L451.65 383.66Z" fill="url(#paint54_linear_26_704)"/>
<path d="M463.63 390.84L451.65 397.76V363.84L463.63 356.93V390.84Z" fill="url(#paint55_linear_26_704)"/>
<path d="M451.66 397.76L439.68 390.84V356.93L451.66 363.84V397.76Z" fill="url(#paint56_linear_26_704)"/>
<path style="mix-blend-mode:color-dodge" d="M439.68 356.93L451.59 363.34L463.63 356.93L452.02 364.11L451.66 397.76L451.09 364.02L439.68 356.93Z" fill="url(#paint57_radial_26_704)"/>
</g>
<g filter="url(#filter5_d_26_704)">
<path d="M434.25 375.77L446.22 382.69L434.25 389.61L422.28 382.69L434.25 375.77Z" fill="url(#paint58_linear_26_704)"/>
<path d="M445.955 400.46L433.985 407.37V389.31L445.955 382.4V400.46Z" fill="url(#paint59_linear_26_704)"/>
<path d="M433.992 407.369L422.28 400.75V382.69L434.26 389.6L433.992 407.369Z" fill="url(#paint60_linear_26_704)"/>
<path style="mix-blend-mode:color-dodge" d="M422.28 382.69L434.2 389.11L446.23 382.69L434.62 389.87L434.172 407.099L433.69 389.78L422.28 382.69Z" fill="url(#paint61_radial_26_704)"/>
</g>
<g filter="url(#filter6_d_26_704)">
<path d="M536.54 321.89H517.08V380.66C517.08 380.66 517.08 380.66 517.08 380.74C517.08 383.87 521.44 386.4 526.81 386.4C532.18 386.4 536.54 383.87 536.54 380.74V380.66V321.89Z" fill="url(#paint62_linear_26_704)"/>
<path style="mix-blend-mode:screen" opacity="0.7" d="M536.54 321.89H517.08V380.66C517.08 380.66 517.08 380.66 517.08 380.74C517.08 383.87 521.44 386.4 526.81 386.4C532.18 386.4 536.54 383.87 536.54 380.74V380.66V321.89Z" fill="url(#paint63_linear_26_704)"/>
<path d="M526.81 327.6C532.184 327.6 536.54 325.061 536.54 321.93C536.54 318.799 532.184 316.26 526.81 316.26C521.436 316.26 517.08 318.799 517.08 321.93C517.08 325.061 521.436 327.6 526.81 327.6Z" fill="url(#paint64_linear_26_704)"/>
<path style="mix-blend-mode:color-dodge" d="M526.81 327.5C521.63 327.5 517.41 325.14 517.11 322.17C517.11 322.28 517.11 322.39 517.11 322.5C517.11 325.63 521.47 328.17 526.84 328.17C532.21 328.17 536.57 325.63 536.57 322.5C536.57 322.39 536.57 322.28 536.57 322.17C536.22 325.14 531.99 327.5 526.81 327.5Z" fill="url(#paint65_radial_26_704)"/>
</g>
<g filter="url(#filter7_d_26_704)">
<path d="M517.37 350.36H497.91V391.86V391.94C497.91 395.07 502.27 397.61 507.64 397.61C513.01 397.61 517.37 395.07 517.37 391.94V391.86V350.36Z" fill="url(#paint66_linear_26_704)"/>
<path style="mix-blend-mode:screen" opacity="0.7" d="M517.445 350.39H497.985V391.89V391.97C497.985 395.1 502.345 397.64 507.715 397.64C513.085 397.64 517.445 395.1 517.445 391.97V391.89V350.39Z" fill="url(#paint67_linear_26_704)"/>
<path d="M507.64 356.07C513.014 356.07 517.37 353.531 517.37 350.4C517.37 347.269 513.014 344.73 507.64 344.73C502.266 344.73 497.91 347.269 497.91 350.4C497.91 353.531 502.266 356.07 507.64 356.07Z" fill="url(#paint68_linear_26_704)"/>
<path style="mix-blend-mode:color-dodge" d="M507.64 356C502.46 356 498.24 353.64 497.94 350.67C497.94 350.78 497.94 350.89 497.94 351C497.94 354.13 502.3 356.67 507.67 356.67C513.04 356.67 517.4 354.13 517.4 351C517.41 350.89 517.41 350.78 517.4 350.67C517.04 353.61 512.82 356 507.64 356Z" fill="url(#paint69_radial_26_704)"/>
</g>
<g filter="url(#filter8_d_26_704)">
<path d="M498 379.52H478.54V403.76V403.83C478.54 406.96 482.89 409.5 488.27 409.5C493.65 409.5 498 406.96 498 403.83V403.76V379.52Z" fill="url(#paint70_linear_26_704)"/>
<path style="mix-blend-mode:screen" opacity="0.7" d="M498 379.52H478.54V403.76V403.83C478.54 406.96 482.89 409.5 488.27 409.5C493.65 409.5 498 406.96 498 403.83V403.76V379.52Z" fill="url(#paint71_linear_26_704)"/>
<path d="M488.27 385.22C493.644 385.22 498 382.681 498 379.55C498 376.418 493.644 373.88 488.27 373.88C482.896 373.88 478.54 376.418 478.54 379.55C478.54 382.681 482.896 385.22 488.27 385.22Z" fill="url(#paint72_linear_26_704)"/>
<path style="mix-blend-mode:color-dodge" d="M488.27 385.13C483.09 385.13 478.87 382.77 478.57 379.79C478.56 379.903 478.56 380.017 478.57 380.13C478.57 383.26 482.92 385.8 488.3 385.8C493.68 385.8 498.03 383.26 498.03 380.13C498.03 380.02 498.03 379.91 498.03 379.79C497.67 382.77 493.43 385.13 488.27 385.13Z" fill="url(#paint73_radial_26_704)"/>
</g>
<path d="M536.53 320H517.07V322.75C517.07 322.75 517.07 322.8 517.07 322.83C517.07 325.95 521.43 328.49 526.8 328.49C532.17 328.49 536.53 325.95 536.53 322.83V322.75V320Z" fill="url(#paint74_linear_26_704)"/>
<g style="mix-blend-mode:multiply">
<path d="M526.8 327.89C521.43 327.89 517.07 325.36 517.07 322.23V322.76C517.07 322.76 517.07 322.81 517.07 322.84C517.07 325.96 521.43 328.5 526.8 328.5C532.17 328.5 536.53 325.96 536.53 322.84V322.76V322.23C536.53 325.36 532.17 327.89 526.8 327.89Z" fill="url(#paint75_linear_26_704)"/>
</g>
<g style="mix-blend-mode:multiply">
<path d="M529.78 328.23L530.05 328.17V321H529.78V328.23Z" fill="#FDD65B"/>
<path d="M531 327.94L531.28 327.86V321H531V327.94Z" fill="#FDD65B"/>
<path d="M532.23 327.54L532.5 327.42V321H532.23V327.54Z" fill="#FDD65B"/>
<path d="M528.56 328.4H528.83V321H528.56V328.4Z" fill="#FDD65B"/>
<path d="M534.67 326.16C534.76 326.08 534.86 326.01 534.94 325.93V320.93H534.67V326.16Z" fill="#FDD65B"/>
<path d="M535.89 324.84C535.991 324.687 536.081 324.526 536.16 324.36V321H535.89V324.84Z" fill="#FDD65B"/>
<path d="M533.43 327L533.7 326.86V321H533.43V327Z" fill="#FDD65B"/>
<path d="M527.34 328.48H527.61V321H527.34V328.48Z" fill="#FDD65B"/>
<path d="M526.11 328.48H526.43V321H526.15L526.11 328.48Z" fill="#FDD65B"/>
<path d="M523.67 328.2L523.94 328.25V321H523.67V328.2Z" fill="#FDD65B"/>
<path d="M524.89 328.39H525.17V321H524.89V328.39Z" fill="#FDD65B"/>
<path d="M522.43 327.9L522.7 327.97V320.97H522.43V327.9Z" fill="#FDD65B"/>
<path d="M517.56 324.6C517.64 324.749 517.731 324.893 517.83 325.03V321H517.56V324.6Z" fill="#FDD65B"/>
<path d="M518.78 326L519.05 326.21V321H518.78V326Z" fill="#FDD65B"/>
<path d="M521.23 327.47L521.5 327.58V321H521.23V327.47Z" fill="#FDD65B"/>
<path d="M520 326.88L520.28 327.03V321H520V326.88Z" fill="#FDD65B"/>
</g>
<path d="M526.8 325.72C532.174 325.72 536.53 323.181 536.53 320.05C536.53 316.918 532.174 314.38 526.8 314.38C521.426 314.38 517.07 316.918 517.07 320.05C517.07 323.181 521.426 325.72 526.8 325.72Z" fill="url(#paint76_linear_26_704)"/>
<path style="mix-blend-mode:screen" d="M526.8 325.57C521.54 325.57 517.27 323.13 517.09 320.1C517.09 320.16 517.09 320.23 517.09 320.29C517.09 323.42 521.45 325.96 526.82 325.96C532.19 325.96 536.55 323.42 536.55 320.29C536.555 320.227 536.555 320.163 536.55 320.1C536.33 323.13 532.06 325.57 526.8 325.57Z" fill="url(#paint77_radial_26_704)"/>
<path d="M526.8 324.28C530.815 324.28 534.07 322.386 534.07 320.05C534.07 317.714 530.815 315.82 526.8 315.82C522.785 315.82 519.53 317.714 519.53 320.05C519.53 322.386 522.785 324.28 526.8 324.28Z" fill="url(#paint78_linear_26_704)"/>
<path style="mix-blend-mode:screen" d="M527.04 316C530.93 316 534.09 317.77 534.3 320C534.3 319.92 534.3 319.85 534.3 319.77C534.3 317.43 531.04 315.53 527.02 315.53C523 315.53 519.75 317.43 519.75 319.77C519.745 319.847 519.745 319.923 519.75 320C520 317.8 523.16 316 527.04 316Z" fill="url(#paint79_radial_26_704)"/>
<path style="mix-blend-mode:multiply" d="M526.8 316.27C530.69 316.27 533.85 318.05 534.05 320.27C534.055 320.193 534.055 320.117 534.05 320.04C534.05 317.7 530.8 315.81 526.78 315.81C522.76 315.81 519.51 317.7 519.51 320.04C519.505 320.117 519.505 320.193 519.51 320.27C519.75 318.05 522.92 316.27 526.8 316.27Z" fill="url(#paint80_linear_26_704)"/>
<path style="mix-blend-mode:color-dodge" d="M521.81 321.21C523.68 321.41 524.96 323.75 524.67 326.43C524.38 329.11 522.67 331.12 520.78 330.92C518.89 330.72 517.63 328.39 517.92 325.71C518.21 323.03 519.95 321 521.81 321.21Z" fill="url(#paint81_radial_26_704)"/>
<path style="mix-blend-mode:color-dodge" d="M531.91 314.59C534.1 315.34 535.57 316.82 535.2 317.9C534.83 318.98 532.76 319.26 530.58 318.52C528.4 317.78 526.92 316.29 527.29 315.21C527.66 314.13 529.72 313.85 531.91 314.59Z" fill="url(#paint82_radial_26_704)"/>
<path style="mix-blend-mode:multiply" d="M529.21 319.08L531.84 319.55C532.28 319.63 532.38 319.97 532 320.12L529.76 321.03C529.61 321.1 529.52 321.19 529.53 321.3V322.89C529.53 323.15 529.01 323.31 528.65 323.15L526.44 322.15C526.274 322.1 526.096 322.1 525.93 322.15L523.32 322.65C522.89 322.74 522.47 322.49 522.62 322.24L523.49 320.74C523.504 320.716 523.513 320.689 523.517 320.661C523.52 320.633 523.519 320.605 523.511 320.578C523.504 320.551 523.491 320.526 523.473 320.504C523.456 320.482 523.434 320.463 523.41 320.45L521.76 319.17C521.48 318.96 521.76 318.66 522.21 318.66H524.96C525.125 318.666 525.286 318.617 525.42 318.52L527 317.23C527.149 317.121 527.333 317.07 527.517 317.086C527.701 317.103 527.873 317.186 528 317.32L528.83 318.84C528.869 318.907 528.925 318.964 528.991 319.006C529.057 319.048 529.132 319.073 529.21 319.08Z" fill="url(#paint83_linear_26_704)"/>
<path d="M529.21 318.78L531.84 319.26C532.28 319.34 532.38 319.67 532 319.83L529.76 320.74C529.61 320.8 529.52 320.9 529.53 321V322.59C529.53 322.86 529.01 323.01 528.65 322.85L526.44 321.9C526.279 321.833 526.101 321.816 525.93 321.85L523.32 322.35C522.89 322.44 522.47 322.2 522.62 321.95L523.49 320.44C523.504 320.416 523.513 320.389 523.517 320.361C523.52 320.333 523.519 320.305 523.511 320.278C523.504 320.251 523.491 320.226 523.473 320.204C523.456 320.182 523.434 320.163 523.41 320.15L521.76 318.87C521.48 318.66 521.76 318.36 522.21 318.36H524.96C525.125 318.366 525.286 318.316 525.42 318.22L527 316.93C527.149 316.821 527.333 316.77 527.517 316.786C527.701 316.803 527.873 316.886 528 317.02L528.83 318.54C528.869 318.607 528.925 318.664 528.991 318.706C529.057 318.748 529.132 318.773 529.21 318.78Z" fill="url(#paint84_linear_26_704)"/>
<path style="mix-blend-mode:color-dodge" d="M529.21 318.78L531.84 319.26C532.28 319.34 532.38 319.67 532 319.83L529.76 320.74C529.61 320.8 529.52 320.9 529.53 321V322.59C529.53 322.86 529.01 323.01 528.65 322.85L526.44 321.9C526.279 321.833 526.101 321.816 525.93 321.85L523.32 322.35C522.89 322.44 522.47 322.2 522.62 321.95L523.49 320.44C523.504 320.416 523.513 320.389 523.517 320.361C523.52 320.333 523.519 320.305 523.511 320.278C523.504 320.251 523.491 320.226 523.473 320.204C523.456 320.182 523.434 320.163 523.41 320.15L521.76 318.87C521.48 318.66 521.76 318.36 522.21 318.36H524.96C525.125 318.366 525.286 318.316 525.42 318.22L527 316.93C527.149 316.821 527.333 316.77 527.517 316.786C527.701 316.803 527.873 316.886 528 317.02L528.83 318.54C528.869 318.607 528.925 318.664 528.991 318.706C529.057 318.748 529.132 318.773 529.21 318.78Z" fill="url(#paint85_radial_26_704)"/>
<path d="M517.43 348.29H498V351C498 351 498 351.05 498 351.08C498 354.21 502.36 356.74 507.73 356.74C513.1 356.74 517.46 354.21 517.46 351.08V351L517.43 348.29Z" fill="url(#paint86_linear_26_704)"/>
<g style="mix-blend-mode:multiply">
<path d="M507.73 356.18C502.36 356.18 498 353.64 498 350.51V351C498 351 498 351.05 498 351.08C498 354.21 502.36 356.74 507.73 356.74C513.1 356.74 517.46 354.21 517.46 351.08V351V350.47C517.43 353.64 513.11 356.18 507.73 356.18Z" fill="url(#paint87_linear_26_704)"/>
</g>
<g style="mix-blend-mode:multiply">
<path d="M510.71 356.51L510.99 356.45V349.26H510.71V356.51Z" fill="#FDD65B"/>
<path d="M511.94 356.22L512.21 356.14V349.26H511.94V356.22Z" fill="#FDD65B"/>
<path d="M513.16 355.82L513.43 355.7V349.26H513.16V355.82Z" fill="#FDD65B"/>
<path d="M509.49 356.69H509.76V349.29H509.49V356.69Z" fill="#FDD65B"/>
<path d="M515.6 354.44C515.69 354.36 515.79 354.29 515.87 354.21V349.21H515.6V354.44Z" fill="#FDD65B"/>
<path d="M516.82 353.12C516.924 352.967 517.018 352.806 517.1 352.64V349.26H516.82V353.12Z" fill="#FDD65B"/>
<path d="M514.43 355.25L514.7 355.1V349.26H514.43V355.25Z" fill="#FDD65B"/>
<path d="M508.27 356.77H508.54V349.27H508.27V356.77Z" fill="#FDD65B"/>
<path d="M507.05 356.76H507.32V349.25H507.05V356.76Z" fill="#FDD65B"/>
<path d="M504.6 356.48H504.88V349.21H504.6V356.48Z" fill="#FDD65B"/>
<path d="M505.82 356.67H506.1V349.23H505.82V356.67Z" fill="#FDD65B"/>
<path d="M503.43 356.18L503.7 356.25V349.25H503.43V356.18Z" fill="#FDD65B"/>
<path d="M498.49 352.88C498.57 353.029 498.661 353.173 498.76 353.31V349.26H498.49V352.88Z" fill="#FDD65B"/>
<path d="M499.71 354.32L499.99 354.53V349.26H499.71V354.32Z" fill="#FDD65B"/>
<path d="M502.16 355.76L502.43 355.86V349.26H502.16V355.76Z" fill="#FDD65B"/>
<path d="M500.94 355.17L501.21 355.31V349.26H500.94V355.17Z" fill="#FDD65B"/>
</g>
<path d="M507.73 354C513.104 354 517.46 351.461 517.46 348.33C517.46 345.198 513.104 342.66 507.73 342.66C502.356 342.66 498 345.198 498 348.33C498 351.461 502.356 354 507.73 354Z" fill="url(#paint88_linear_26_704)"/>
<path style="mix-blend-mode:screen" d="M507.73 353.85C502.47 353.85 498.2 351.42 498.02 348.38C498.02 348.44 498.02 348.51 498.02 348.58C498.02 351.7 502.38 354.24 507.75 354.24C513.12 354.24 517.48 351.7 517.48 348.58C517.485 348.513 517.485 348.446 517.48 348.38C517.27 351.42 512.99 353.85 507.73 353.85Z" fill="url(#paint89_radial_26_704)"/>
<path d="M515.01 348.33C515.01 350.67 511.75 352.57 507.73 352.57C503.71 352.57 500.46 350.67 500.46 348.33C500.46 345.99 503.72 344.1 507.73 344.1C511.74 344.1 515.01 346 515.01 348.33Z" fill="url(#paint90_linear_26_704)"/>
<path style="mix-blend-mode:screen" d="M507.98 344.31C511.86 344.31 514.98 346.09 515.23 348.31C515.235 348.234 515.235 348.157 515.23 348.08C515.23 345.74 511.97 343.85 507.96 343.85C503.95 343.85 500.68 345.74 500.68 348.08C500.68 348.16 500.68 348.23 500.68 348.31C500.93 346.09 504.09 344.31 507.98 344.31Z" fill="url(#paint91_radial_26_704)"/>
<path style="mix-blend-mode:multiply" d="M507.73 344.55C511.62 344.55 514.78 346.33 514.99 348.55C514.99 348.47 514.99 348.4 514.99 348.32C514.99 345.98 511.73 344.09 507.71 344.09C503.69 344.09 500.43 346 500.43 348.33C500.425 348.407 500.425 348.484 500.43 348.56C500.68 346.33 503.85 344.55 507.73 344.55Z" fill="url(#paint92_linear_26_704)"/>
<path style="mix-blend-mode:color-dodge" d="M502.75 349.5C504.61 349.7 505.89 352.03 505.6 354.71C505.31 357.39 503.6 359.4 501.71 359.2C499.82 359 498.57 356.67 498.85 353.99C499.13 351.31 500.88 349.3 502.75 349.5Z" fill="url(#paint93_radial_26_704)"/>
<path style="mix-blend-mode:color-dodge" d="M512.84 342.88C515.03 343.62 516.5 345.1 516.13 346.18C515.76 347.26 513.69 347.54 511.51 346.8C509.33 346.06 507.85 344.57 508.22 343.49C508.59 342.41 510.66 342.13 512.84 342.88Z" fill="url(#paint94_radial_26_704)"/>
<path style="mix-blend-mode:multiply" d="M510.31 347.5L512.94 347.97C513.38 348.05 513.47 348.39 513.1 348.54L510.86 349.45C510.71 349.51 510.62 349.61 510.62 349.72L510.67 351.31C510.67 351.57 510.15 351.72 509.78 351.56L507.57 350.61C507.407 350.549 507.231 350.532 507.06 350.56L504.46 351.07C504.02 351.15 503.61 350.91 503.75 350.66L504.63 349.16C504.659 349.109 504.667 349.05 504.652 348.993C504.637 348.937 504.6 348.889 504.55 348.86L502.89 347.59C502.62 347.38 502.89 347.07 503.34 347.08H506.09C506.253 347.087 506.415 347.042 506.55 346.95L508.13 345.66C508.279 345.551 508.463 345.5 508.647 345.516C508.831 345.533 509.003 345.616 509.13 345.75L509.95 347.26C509.989 347.323 510.042 347.378 510.104 347.419C510.166 347.461 510.236 347.488 510.31 347.5Z" fill="url(#paint95_linear_26_704)"/>
<path d="M510.31 347.2L512.94 347.68C513.38 347.76 513.47 348.09 513.1 348.24L510.86 349.16C510.71 349.22 510.62 349.32 510.62 349.42L510.67 351.01C510.67 351.27 510.15 351.43 509.78 351.27L507.57 350.27C507.404 350.215 507.226 350.215 507.06 350.27L504.46 350.77C504.02 350.86 503.61 350.62 503.75 350.36L504.63 348.86C504.644 348.836 504.653 348.809 504.657 348.781C504.661 348.753 504.659 348.725 504.651 348.698C504.644 348.671 504.631 348.646 504.613 348.624C504.596 348.602 504.575 348.584 504.55 348.57L502.89 347.29C502.62 347.08 502.89 346.78 503.34 346.78H506.09C506.255 346.789 506.418 346.74 506.55 346.64L508.13 345.35C508.28 345.243 508.463 345.193 508.647 345.21C508.83 345.226 509.002 345.308 509.13 345.44L509.95 346.96C509.989 347.024 510.042 347.078 510.104 347.119C510.166 347.161 510.236 347.188 510.31 347.2V347.2Z" fill="url(#paint96_linear_26_704)"/>
<path style="mix-blend-mode:color-dodge" d="M510.31 347.2L512.94 347.68C513.38 347.76 513.47 348.09 513.1 348.24L510.86 349.16C510.71 349.22 510.62 349.32 510.62 349.42L510.67 351.01C510.67 351.27 510.15 351.43 509.78 351.27L507.57 350.27C507.404 350.215 507.226 350.215 507.06 350.27L504.46 350.77C504.02 350.86 503.61 350.62 503.75 350.36L504.63 348.86C504.644 348.836 504.653 348.809 504.657 348.781C504.661 348.753 504.659 348.725 504.651 348.698C504.644 348.671 504.631 348.646 504.613 348.624C504.596 348.602 504.575 348.584 504.55 348.57L502.89 347.29C502.62 347.08 502.89 346.78 503.34 346.78H506.09C506.255 346.789 506.418 346.74 506.55 346.64L508.13 345.35C508.28 345.243 508.463 345.193 508.647 345.21C508.83 345.226 509.002 345.308 509.13 345.44L509.95 346.96C509.989 347.024 510.042 347.078 510.104 347.119C510.166 347.161 510.236 347.188 510.31 347.2V347.2Z" fill="url(#paint97_radial_26_704)"/>
<path d="M497.9 377.5H478.43V380.25V380.33C478.43 383.46 482.78 385.99 488.15 385.99C493.52 385.99 497.88 383.46 497.88 380.33V380.25L497.9 377.5Z" fill="url(#paint98_linear_26_704)"/>
<g style="mix-blend-mode:multiply">
<path d="M488.17 385.39C482.8 385.39 478.45 382.85 478.45 379.72V380.25V380.33C478.45 383.46 482.8 385.99 488.17 385.99C493.54 385.99 497.9 383.46 497.9 380.33V380.25V379.72C497.9 382.85 493.55 385.39 488.17 385.39Z" fill="url(#paint99_linear_26_704)"/>
</g>
<g style="mix-blend-mode:multiply">
<path d="M491.15 385.72L491.43 385.66V378.47H491.15V385.72Z" fill="#FDD65B"/>
<path d="M492.43 385.43L492.7 385.35V378.47H492.43V385.43Z" fill="#FDD65B"/>
<path d="M493.6 385L493.87 384.88V378.44H493.6V385Z" fill="#FDD65B"/>
<path d="M489.93 385.9H490.2V378.5H489.93V385.9Z" fill="#FDD65B"/>
<path d="M496.04 383.65L496.32 383.42V378.47H496.04V383.65Z" fill="#FDD65B"/>
<path d="M497.27 382.33C497.37 382.17 497.46 382.01 497.54 381.85V378.47H497.27V382.33Z" fill="#FDD65B"/>
<path d="M494.82 384.46L495.09 384.31V378.47H494.82V384.46Z" fill="#FDD65B"/>
<path d="M488.71 386H488.98V378.5H488.71V386Z" fill="#FDD65B"/>
<path d="M487.49 386H487.76V378.49H487.49V386Z" fill="#FDD65B"/>
<path d="M485.04 385.69L485.32 385.74V378.47H485.04V385.69Z" fill="#FDD65B"/>
<path d="M486.27 385.88H486.54V378.44H486.27V385.88Z" fill="#FDD65B"/>
<path d="M483.82 385.39L484.09 385.46V378.46H483.82V385.39Z" fill="#FDD65B"/>
<path d="M478.93 382.09C479.014 382.239 479.107 382.383 479.21 382.52V378.52H478.93V382.09Z" fill="#FDD65B"/>
<path d="M480.15 383.53L480.43 383.74V378.47H480.15V383.53Z" fill="#FDD65B"/>
<path d="M482.6 385L482.87 385.1V378.5H482.6V385Z" fill="#FDD65B"/>
<path d="M481.43 384.38L481.7 384.52V378.52H481.43V384.38Z" fill="#FDD65B"/>
</g>
<path d="M488.17 383.21C493.544 383.21 497.9 380.672 497.9 377.54C497.9 374.409 493.544 371.87 488.17 371.87C482.796 371.87 478.44 374.409 478.44 377.54C478.44 380.672 482.796 383.21 488.17 383.21Z" fill="url(#paint100_linear_26_704)"/>
<path style="mix-blend-mode:screen" d="M488.17 383.06C482.92 383.06 478.64 380.63 478.46 377.59C478.46 377.65 478.46 377.72 478.46 377.79C478.46 380.91 482.81 383.45 488.18 383.45C493.55 383.45 497.91 380.91 497.91 377.79C497.91 377.72 497.91 377.65 497.91 377.59C497.71 380.63 493.43 383.06 488.17 383.06Z" fill="url(#paint101_radial_26_704)"/>
<path d="M488.17 381.77C492.185 381.77 495.44 379.876 495.44 377.54C495.44 375.204 492.185 373.31 488.17 373.31C484.155 373.31 480.9 375.204 480.9 377.54C480.9 379.876 484.155 381.77 488.17 381.77Z" fill="url(#paint102_linear_26_704)"/>
<path style="mix-blend-mode:screen" d="M488.43 373.52C492.31 373.52 495.48 375.3 495.68 377.52C495.685 377.443 495.685 377.367 495.68 377.29C495.68 374.95 492.42 373.06 488.41 373.06C484.4 373.06 481.13 374.95 481.13 377.29C481.13 377.37 481.13 377.44 481.13 377.52C481.37 375.3 484.53 373.52 488.43 373.52Z" fill="url(#paint103_radial_26_704)"/>
<path style="mix-blend-mode:multiply" d="M488.17 373.76C492.06 373.76 495.22 375.54 495.43 377.76C495.43 377.68 495.43 377.61 495.43 377.53C495.43 375.19 492.17 373.3 488.15 373.3C484.13 373.3 480.88 375.19 480.88 377.53C480.875 377.607 480.875 377.683 480.88 377.76C481.13 375.54 484.29 373.76 488.17 373.76Z" fill="url(#paint104_linear_26_704)"/>
<path style="mix-blend-mode:color-dodge" d="M483.19 378.71C485.05 378.91 486.33 381.24 486.05 383.92C485.77 386.6 484.05 388.61 482.15 388.41C480.25 388.21 479.01 385.88 479.29 383.2C479.57 380.52 481.32 378.51 483.19 378.71Z" fill="url(#paint105_radial_26_704)"/>
<path style="mix-blend-mode:color-dodge" d="M493.28 372.09C495.47 372.83 496.94 374.31 496.57 375.39C496.2 376.47 494.14 376.75 491.95 376.01C489.76 375.27 488.29 373.78 488.66 372.7C489.03 371.62 491.1 371.34 493.28 372.09Z" fill="url(#paint106_radial_26_704)"/>
<path style="mix-blend-mode:multiply" d="M490.68 376.58L493.3 377.06C493.74 377.14 493.84 377.47 493.46 377.63L491.22 378.54C491.07 378.6 490.99 378.7 490.99 378.8V380.39C490.99 380.66 490.48 380.81 490.11 380.65L487.9 379.7C487.739 379.633 487.561 379.616 487.39 379.65L484.79 380.15C484.35 380.24 483.93 380 484.08 379.75L484.96 378.24C484.985 378.189 484.99 378.131 484.973 378.077C484.956 378.023 484.919 377.977 484.87 377.95L483.22 376.67C482.95 376.46 483.22 376.16 483.67 376.16H486.42C486.585 376.167 486.747 376.118 486.88 376.02L488.46 374.73C488.61 374.623 488.793 374.573 488.977 374.59C489.16 374.606 489.332 374.688 489.46 374.82L490.28 376.34C490.322 376.409 490.38 376.468 490.45 376.509C490.52 376.551 490.599 376.575 490.68 376.58Z" fill="url(#paint107_linear_26_704)"/>
<path d="M490.68 376.28L493.3 376.76C493.74 376.84 493.84 377.18 493.46 377.33L491.22 378.24C491.159 378.256 491.104 378.291 491.062 378.339C491.021 378.387 490.996 378.447 490.99 378.51V380.09C490.99 380.36 490.48 380.51 490.11 380.35L487.9 379.35C487.733 379.306 487.557 379.306 487.39 379.35L484.79 379.86C484.35 379.94 483.93 379.7 484.08 379.45L484.96 377.95C484.983 377.898 484.987 377.838 484.971 377.783C484.954 377.728 484.918 377.681 484.87 377.65L483.22 376.38C482.95 376.16 483.22 375.86 483.67 375.87H486.42C486.583 375.876 486.744 375.83 486.88 375.74L488.46 374.44C488.611 374.334 488.795 374.286 488.978 374.304C489.162 374.323 489.333 374.406 489.46 374.54L490.28 376.05C490.323 376.118 490.382 376.174 490.452 376.214C490.521 376.254 490.6 376.277 490.68 376.28V376.28Z" fill="url(#paint108_linear_26_704)"/>
<path style="mix-blend-mode:color-dodge" d="M490.68 376.28L493.3 376.76C493.74 376.84 493.84 377.18 493.46 377.33L491.22 378.24C491.159 378.256 491.104 378.291 491.062 378.339C491.021 378.387 490.996 378.447 490.99 378.51V380.09C490.99 380.36 490.48 380.51 490.11 380.35L487.9 379.35C487.733 379.306 487.557 379.306 487.39 379.35L484.79 379.86C484.35 379.94 483.93 379.7 484.08 379.45L484.96 377.95C484.983 377.898 484.987 377.838 484.971 377.783C484.954 377.728 484.918 377.681 484.87 377.65L483.22 376.38C482.95 376.16 483.22 375.86 483.67 375.87H486.42C486.583 375.876 486.744 375.83 486.88 375.74L488.46 374.44C488.611 374.334 488.795 374.286 488.978 374.304C489.162 374.323 489.333 374.406 489.46 374.54L490.28 376.05C490.323 376.118 490.382 376.174 490.452 376.214C490.521 376.254 490.6 376.277 490.68 376.28V376.28Z" fill="url(#paint109_radial_26_704)"/>
<g opacity="0.6">
<path style="mix-blend-mode:multiply" opacity="0.1" d="M371.09 243.72C371.084 243.734 371.08 243.75 371.08 243.765C371.08 243.781 371.084 243.796 371.09 243.81C371.09 243.81 369.84 247.37 370.4 253.59C370.81 258.03 371.3 267.53 371.69 275.92C372.08 284.31 372.37 291.6 372.37 291.6C372.362 291.623 372.362 291.648 372.37 291.67C372.405 291.786 372.467 291.893 372.55 291.981C372.634 292.07 372.736 292.138 372.85 292.18C373.795 292.463 374.762 292.67 375.74 292.8C376.674 293.024 377.643 293.058 378.59 292.9C378.703 292.836 378.798 292.745 378.866 292.635C378.934 292.525 378.973 292.399 378.98 292.27V292.2C378.98 292.2 377.98 284.66 376.9 276.02C375.82 267.38 374.62 257.63 374.22 253.2C373.65 247 371.86 243.74 371.86 243.74C371.852 243.706 371.836 243.675 371.814 243.649C371.791 243.623 371.762 243.602 371.73 243.59L371.09 243.72Z" fill="url(#paint110_linear_26_704)"/>
<path style="mix-blend-mode:multiply" opacity="0.11" d="M371.08 243.79C370.862 244.626 370.695 245.474 370.58 246.33V246.33C370.299 248.6 370.268 250.894 370.49 253.17C370.87 257.37 371.36 266.58 371.76 274.76V275.47C372.13 283.15 372.4 289.72 372.42 289.92C372.412 289.943 372.412 289.968 372.42 289.99C372.496 290.21 372.654 290.393 372.86 290.5C373.691 290.833 374.556 291.071 375.44 291.21H375.5L376.17 291.32C376.828 291.473 377.512 291.473 378.17 291.32C378.314 291.231 378.428 291.103 378.5 290.95V290.95C378.51 290.884 378.51 290.816 378.5 290.75C378.506 290.727 378.506 290.703 378.5 290.68C378.5 290.61 377.5 283.29 376.5 274.93C375.5 266.57 374.32 257.12 373.93 252.93C373.93 252.77 373.93 252.6 373.93 252.44C373.711 250.073 373.21 247.74 372.44 245.49C372.429 245.445 372.413 245.401 372.39 245.36C372.203 244.828 371.986 244.308 371.74 243.8C371.735 243.767 371.721 243.735 371.7 243.709C371.679 243.683 371.652 243.662 371.62 243.65L371.04 243.73C371.047 243.754 371.061 243.774 371.08 243.79V243.79Z" fill="url(#paint111_linear_26_704)"/>
<path style="mix-blend-mode:multiply" opacity="0.12" d="M371.1 243.77C371.1 243.77 370.85 244.83 370.65 246.23C370.386 248.414 370.359 250.62 370.57 252.81C370.93 256.81 371.43 265.7 371.83 273.66C371.83 273.89 371.83 274.12 371.83 274.35C372.19 281.63 372.46 287.89 372.49 288.35C372.488 288.377 372.488 288.403 372.49 288.43C372.517 288.536 372.567 288.635 372.636 288.719C372.705 288.804 372.792 288.872 372.89 288.92C373.608 289.345 374.403 289.624 375.23 289.74C375.43 289.74 375.64 289.83 375.86 289.86C376.487 290.014 377.143 290.014 377.77 289.86C377.906 289.775 378.011 289.649 378.07 289.5C378.07 289.5 378.07 289.5 378.07 289.5C378.08 289.434 378.08 289.366 378.07 289.3V289.3C378.07 289.14 377.15 282.04 376.16 273.97C375.17 265.9 374.08 256.74 373.71 252.72C373.71 252.56 373.71 252.4 373.71 252.25C373.507 249.966 373.037 247.714 372.31 245.54C372.298 245.498 372.281 245.458 372.26 245.42C371.94 244.54 371.65 243.91 371.65 243.91C371.645 243.878 371.633 243.848 371.613 243.821C371.594 243.795 371.569 243.774 371.54 243.76H371C371.031 243.776 371.067 243.779 371.1 243.77Z" fill="url(#paint112_linear_26_704)"/>
<path style="mix-blend-mode:multiply" opacity="0.13" d="M371.11 243.74C371.11 243.74 370.91 244.88 370.73 246.12C370.509 248.221 370.509 250.339 370.73 252.44C371.07 256.17 371.56 264.81 371.98 272.55V273.21C372.33 280.1 372.6 286.06 372.65 286.67C372.652 286.697 372.652 286.723 372.65 286.75C372.701 286.954 372.83 287.13 373.01 287.24C373.26 287.65 374.22 287.89 375.11 288.17C375.301 288.224 375.494 288.267 375.69 288.3C376.279 288.461 376.901 288.461 377.49 288.3C377.625 288.217 377.728 288.09 377.78 287.94C377.78 287.94 377.78 287.94 377.78 287.94C377.786 287.877 377.786 287.813 377.78 287.75C377.78 287.52 376.9 280.64 375.96 272.84C375.02 265.04 373.96 256.21 373.63 252.38C373.63 252.22 373.63 252.07 373.63 251.93C373.439 249.733 372.996 247.566 372.31 245.47C372.314 245.43 372.314 245.39 372.31 245.35C372.03 244.58 371.75 243.9 371.75 243.9C371.733 243.841 371.698 243.788 371.65 243.75H371.15C371.15 243.75 371.11 243.72 371.11 243.74Z" fill="url(#paint113_linear_26_704)"/>
<path style="mix-blend-mode:multiply" opacity="0.18" d="M371.21 243.6C371.21 243.6 371.21 245.17 371.21 245.48C371.095 247.056 371.115 248.638 371.27 250.21C371.49 252.53 371.99 259.45 372.45 265.89C372.45 266.06 372.45 266.23 372.45 266.41C372.76 270.92 373.03 275.07 373.18 276.89C373.18 276.89 373.18 276.95 373.18 276.97C373.208 277.13 373.248 277.287 373.3 277.44C373.54 278.36 373.69 278.97 373.92 279.01C373.998 279.105 374.103 279.174 374.22 279.21C374.405 279.276 374.601 279.304 374.797 279.292C374.993 279.28 375.185 279.228 375.36 279.14C375.414 279.111 375.46 279.069 375.495 279.019C375.529 278.969 375.552 278.911 375.56 278.85V278.85C375.571 278.807 375.571 278.763 375.56 278.72C375.5 278.03 374.9 272.46 374.25 266.36C373.59 260.08 372.88 253.24 372.64 250.62C372.64 250.49 372.64 250.38 372.64 250.27C372.514 248.584 372.246 246.911 371.84 245.27C371.839 245.254 371.834 245.238 371.825 245.224C371.816 245.21 371.804 245.198 371.79 245.19C371.72 245 371.47 244.05 371.47 244.05C371.474 244.004 371.474 243.957 371.47 243.91L371.27 243.56L371.21 243.6Z" fill="url(#paint114_linear_26_704)"/>
</g>
<path d="M275.28 300.63L271.48 300.11C271.043 300.049 270.641 299.839 270.341 299.516C270.041 299.193 269.862 298.776 269.832 298.337C269.803 297.897 269.926 297.46 270.18 297.1C270.435 296.74 270.806 296.479 271.23 296.36L292.51 290.54L275.28 300.63Z" fill="url(#paint115_linear_26_704)"/>
<path style="mix-blend-mode:color-dodge" d="M275.43 300.26L271.63 299.74C271.354 299.707 271.089 299.614 270.854 299.467C270.618 299.32 270.417 299.124 270.266 298.891C270.114 298.658 270.015 298.395 269.976 298.121C269.937 297.846 269.959 297.566 270.04 297.3C269.891 297.574 269.811 297.88 269.808 298.192C269.804 298.504 269.876 298.812 270.017 299.089C270.159 299.367 270.366 299.606 270.621 299.785C270.876 299.965 271.171 300.08 271.48 300.12L275.28 300.63L292.51 290.54L291.6 290.79L275.43 300.26Z" fill="url(#paint116_radial_26_704)"/>
<path d="M371.88 244.3C371.882 244.337 371.875 244.373 371.859 244.406C371.843 244.44 371.82 244.468 371.79 244.49C371.79 244.49 369.36 247.8 363.42 251.24C354.93 256.16 353.57 256.49 353.57 256.49C353.34 256.62 353.49 256.33 353.14 256.13C352.779 255.896 352.479 255.58 352.264 255.208C352.048 254.837 351.924 254.419 351.9 253.99C351.9 253.6 351.54 253.6 351.76 253.47C351.76 253.47 352.76 252.47 361.24 247.59C367.24 244.14 371.35 243.73 371.35 243.73C371.384 243.712 371.421 243.702 371.46 243.702C371.498 243.702 371.536 243.712 371.57 243.73C371.664 243.792 371.742 243.877 371.796 243.976C371.85 244.076 371.879 244.187 371.88 244.3Z" fill="url(#paint117_linear_26_704)"/>
<path d="M353.88 255.71C353.88 256.5 353.33 256.82 352.64 256.42C352.279 256.184 351.978 255.867 351.763 255.493C351.547 255.12 351.423 254.701 351.4 254.27C351.4 253.49 351.95 253.17 352.64 253.57C353.002 253.803 353.303 254.118 353.518 254.49C353.734 254.862 353.858 255.28 353.88 255.71V255.71Z" fill="url(#paint118_linear_26_704)"/>
<path d="M353.64 255.74C353.655 255.884 353.632 256.029 353.572 256.161C353.513 256.293 353.418 256.407 353.3 256.49L274.65 302.8C274.43 302.92 274.57 302.65 274.24 302.46C273.895 302.235 273.608 301.933 273.401 301.577C273.194 301.22 273.074 300.821 273.05 300.41C273.05 300.04 272.71 300.04 272.92 299.91L351.62 253.6C351.754 253.542 351.901 253.52 352.047 253.536C352.192 253.552 352.331 253.605 352.45 253.69C352.794 253.915 353.081 254.218 353.288 254.574C353.495 254.93 353.615 255.329 353.64 255.74V255.74Z" fill="url(#paint119_linear_26_704)"/>
<path d="M274.95 302.06C274.95 302.81 274.42 303.11 273.76 302.73C273.42 302.511 273.136 302.217 272.93 301.87C272.723 301.523 272.6 301.133 272.57 300.73C272.57 299.97 273.11 299.67 273.76 300.05C274.101 300.269 274.387 300.565 274.593 300.914C274.8 301.263 274.922 301.655 274.95 302.06V302.06Z" fill="url(#paint120_linear_26_704)"/>
<path d="M274.64 299.23L292.24 289.09L278.51 288C277.362 287.905 276.211 288.146 275.198 288.694C274.185 289.241 273.353 290.072 272.803 291.084C272.253 292.096 272.009 293.246 272.101 294.394C272.192 295.542 272.616 296.638 273.32 297.55L274.64 299.23Z" fill="url(#paint121_linear_26_704)"/>
<path d="M274.92 299.18L292.52 289L278.79 287.87C277.64 287.773 276.488 288.014 275.472 288.562C274.457 289.11 273.623 289.941 273.073 290.955C272.523 291.969 272.279 293.121 272.373 294.271C272.467 295.421 272.893 296.518 273.6 297.43L274.92 299.18Z" fill="url(#paint122_linear_26_704)"/>
<path style="mix-blend-mode:color-dodge" d="M273.86 297.58C273.146 296.669 272.715 295.569 272.618 294.416C272.521 293.262 272.763 292.106 273.314 291.088C273.865 290.071 274.702 289.236 275.721 288.688C276.74 288.139 277.897 287.9 279.05 288L292.43 289.12L292.57 289.04L278.84 287.91C277.69 287.814 276.538 288.054 275.522 288.602C274.507 289.15 273.673 289.981 273.123 290.995C272.573 292.009 272.329 293.161 272.423 294.311C272.516 295.461 272.943 296.558 273.65 297.47L274.97 299.18L275.09 299.11L273.86 297.58Z" fill="url(#paint123_radial_26_704)"/>
<path d="M275.76 301.3L276.19 302.85C276.455 303.772 276.979 304.598 277.701 305.23C278.422 305.862 279.31 306.273 280.259 306.414C281.208 306.555 282.177 306.421 283.051 306.027C283.925 305.632 284.668 304.995 285.19 304.19L293.38 291.32L275.76 301.3Z" fill="url(#paint124_linear_26_704)"/>
<path d="M276.03 301.08L276.46 302.63C276.726 303.546 277.248 304.367 277.965 304.996C278.682 305.625 279.564 306.036 280.507 306.18C281.45 306.324 282.415 306.196 283.287 305.809C284.159 305.423 284.903 304.795 285.43 304L293.62 291.13L276.03 301.08Z" fill="url(#paint125_linear_26_704)"/>
<path style="mix-blend-mode:color-dodge" d="M285.59 303.7C285.069 304.505 284.327 305.143 283.453 305.538C282.58 305.933 281.611 306.068 280.662 305.928C279.714 305.788 278.826 305.378 278.104 304.747C277.382 304.116 276.856 303.291 276.59 302.37L276.2 300.97L276.01 301.08L276.44 302.63C276.703 303.551 277.224 304.378 277.943 305.011C278.662 305.644 279.548 306.057 280.495 306.202C281.442 306.346 282.411 306.215 283.285 305.825C284.16 305.435 284.905 304.801 285.43 304L293.62 291.13L285.59 303.7Z" fill="url(#paint126_radial_26_704)"/>
<path style="mix-blend-mode:color-dodge" d="M366.87 245.84C367.33 246.64 361.8 250.77 354.52 255.07C347.24 259.37 340.94 262.22 340.52 261.42C340.1 260.62 345.58 256.5 352.87 252.2C360.16 247.9 366.43 245.05 366.87 245.84Z" fill="url(#paint127_radial_26_704)"/>
<defs>
<filter id="filter0_d_26_704" x="238.28" y="98" width="287.04" height="346.8" filterUnits="userSpaceOnUse" color-interpolation-filters="sRGB">
<feFlood flood-opacity="0" result="BackgroundImageFix"/>
<feColorMatrix in="SourceAlpha" type="matrix" values="0 0 0 0 0 0 0 0 0 0 0 0 0 0 0 0 0 0 127 0" result="hardAlpha"/>
<feOffset dy="2"/>
<feGaussianBlur stdDeviation="2"/>
<feComposite in2="hardAlpha" operator="out"/>
<feColorMatrix type="matrix" values="0 0 0 0 0.0470588 0 0 0 0 0.219608 0 0 0 0 0.631373 0 0 0 0.2 0"/>
<feBlend mode="normal" in2="BackgroundImageFix" result="effect1_dropShadow_26_704"/>
<feBlend mode="normal" in="SourceGraphic" in2="effect1_dropShadow_26_704" result="shape"/>
</filter>
<filter id="filter1_d_26_704" x="490.76" y="256.69" width="27.9601" height="115.42" filterUnits="userSpaceOnUse" color-interpolation-filters="sRGB">
<feFlood flood-opacity="0" result="BackgroundImageFix"/>
<feColorMatrix in="SourceAlpha" type="matrix" values="0 0 0 0 0 0 0 0 0 0 0 0 0 0 0 0 0 0 127 0" result="hardAlpha"/>
<feOffset dx="1" dy="2"/>
<feGaussianBlur stdDeviation="1"/>
<feComposite in2="hardAlpha" operator="out"/>
<feColorMatrix type="matrix" values="0 0 0 0 0.0470588 0 0 0 0 0.219608 0 0 0 0 0.631373 0 0 0 0.1 0"/>
<feBlend mode="normal" in2="BackgroundImageFix" result="effect1_dropShadow_26_704"/>
<feBlend mode="normal" in="SourceGraphic" in2="effect1_dropShadow_26_704" result="shape"/>
</filter>
<filter id="filter2_d_26_704" x="473.59" y="286.09" width="27.96" height="95.5798" filterUnits="userSpaceOnUse" color-interpolation-filters="sRGB">
<feFlood flood-opacity="0" result="BackgroundImageFix"/>
<feColorMatrix in="SourceAlpha" type="matrix" values="0 0 0 0 0 0 0 0 0 0 0 0 0 0 0 0 0 0 127 0" result="hardAlpha"/>
<feOffset dx="1" dy="2"/>
<feGaussianBlur stdDeviation="1"/>
<feComposite in2="hardAlpha" operator="out"/>
<feColorMatrix type="matrix" values="0 0 0 0 0.0470588 0 0 0 0 0.219608 0 0 0 0 0.631373 0 0 0 0.1 0"/>
<feBlend mode="normal" in2="BackgroundImageFix" result="effect1_dropShadow_26_704"/>
<feBlend mode="normal" in="SourceGraphic" in2="effect1_dropShadow_26_704" result="shape"/>
</filter>
<filter id="filter3_d_26_704" x="456.03" y="316.61" width="27.95" height="74.3298" filterUnits="userSpaceOnUse" color-interpolation-filters="sRGB">
<feFlood flood-opacity="0" result="BackgroundImageFix"/>
<feColorMatrix in="SourceAlpha" type="matrix" values="0 0 0 0 0 0 0 0 0 0 0 0 0 0 0 0 0 0 127 0" result="hardAlpha"/>
<feOffset dx="1" dy="2"/>
<feGaussianBlur stdDeviation="1"/>
<feComposite in2="hardAlpha" operator="out"/>
<feColorMatrix type="matrix" values="0 0 0 0 0.0470588 0 0 0 0 0.219608 0 0 0 0 0.631373 0 0 0 0.1 0"/>
<feBlend mode="normal" in2="BackgroundImageFix" result="effect1_dropShadow_26_704"/>
<feBlend mode="normal" in="SourceGraphic" in2="effect1_dropShadow_26_704" result="shape"/>
</filter>
<filter id="filter4_d_26_704" x="438.68" y="350.01" width="27.95" height="51.75" filterUnits="userSpaceOnUse" color-interpolation-filters="sRGB">
<feFlood flood-opacity="0" result="BackgroundImageFix"/>
<feColorMatrix in="SourceAlpha" type="matrix" values="0 0 0 0 0 0 0 0 0 0 0 0 0 0 0 0 0 0 127 0" result="hardAlpha"/>
<feOffset dx="1" dy="2"/>
<feGaussianBlur stdDeviation="1"/>
<feComposite in2="hardAlpha" operator="out"/>
<feColorMatrix type="matrix" values="0 0 0 0 0.0470588 0 0 0 0 0.219608 0 0 0 0 0.631373 0 0 0 0.1 0"/>
<feBlend mode="normal" in2="BackgroundImageFix" result="effect1_dropShadow_26_704"/>
<feBlend mode="normal" in="SourceGraphic" in2="effect1_dropShadow_26_704" result="shape"/>
</filter>
<filter id="filter5_d_26_704" x="421.28" y="375.77" width="27.95" height="35.5999" filterUnits="userSpaceOnUse" color-interpolation-filters="sRGB">
<feFlood flood-opacity="0" result="BackgroundImageFix"/>
<feColorMatrix in="SourceAlpha" type="matrix" values="0 0 0 0 0 0 0 0 0 0 0 0 0 0 0 0 0 0 127 0" result="hardAlpha"/>
<feOffset dx="1" dy="2"/>
<feGaussianBlur stdDeviation="1"/>
<feComposite in2="hardAlpha" operator="out"/>
<feColorMatrix type="matrix" values="0 0 0 0 0.0470588 0 0 0 0 0.219608 0 0 0 0 0.631373 0 0 0 0.1 0"/>
<feBlend mode="normal" in2="BackgroundImageFix" result="effect1_dropShadow_26_704"/>
<feBlend mode="normal" in="SourceGraphic" in2="effect1_dropShadow_26_704" result="shape"/>
</filter>
<filter id="filter6_d_26_704" x="516.08" y="316.26" width="23.4901" height="74.1401" filterUnits="userSpaceOnUse" color-interpolation-filters="sRGB">
<feFlood flood-opacity="0" result="BackgroundImageFix"/>
<feColorMatrix in="SourceAlpha" type="matrix" values="0 0 0 0 0 0 0 0 0 0 0 0 0 0 0 0 0 0 127 0" result="hardAlpha"/>
<feOffset dx="1" dy="2"/>
<feGaussianBlur stdDeviation="1"/>
<feComposite in2="hardAlpha" operator="out"/>
<feColorMatrix type="matrix" values="0 0 0 0 0.0470588 0 0 0 0 0.219608 0 0 0 0 0.631373 0 0 0 0.1 0"/>
<feBlend mode="normal" in2="BackgroundImageFix" result="effect1_dropShadow_26_704"/>
<feBlend mode="normal" in="SourceGraphic" in2="effect1_dropShadow_26_704" result="shape"/>
</filter>
<filter id="filter7_d_26_704" x="496.91" y="344.73" width="23.5349" height="56.9099" filterUnits="userSpaceOnUse" color-interpolation-filters="sRGB">
<feFlood flood-opacity="0" result="BackgroundImageFix"/>
<feColorMatrix in="SourceAlpha" type="matrix" values="0 0 0 0 0 0 0 0 0 0 0 0 0 0 0 0 0 0 127 0" result="hardAlpha"/>
<feOffset dx="1" dy="2"/>
<feGaussianBlur stdDeviation="1"/>
<feComposite in2="hardAlpha" operator="out"/>
<feColorMatrix type="matrix" values="0 0 0 0 0.0470588 0 0 0 0 0.219608 0 0 0 0 0.631373 0 0 0 0.1 0"/>
<feBlend mode="normal" in2="BackgroundImageFix" result="effect1_dropShadow_26_704"/>
<feBlend mode="normal" in="SourceGraphic" in2="effect1_dropShadow_26_704" result="shape"/>
</filter>
<filter id="filter8_d_26_704" x="477.54" y="373.88" width="23.4901" height="39.6199" filterUnits="userSpaceOnUse" color-interpolation-filters="sRGB">
<feFlood flood-opacity="0" result="BackgroundImageFix"/>
<feColorMatrix in="SourceAlpha" type="matrix" values="0 0 0 0 0 0 0 0 0 0 0 0 0 0 0 0 0 0 127 0" result="hardAlpha"/>
<feOffset dx="1" dy="2"/>
<feGaussianBlur stdDeviation="1"/>
<feComposite in2="hardAlpha" operator="out"/>
<feColorMatrix type="matrix" values="0 0 0 0 0.0470588 0 0 0 0 0.219608 0 0 0 0 0.631373 0 0 0 0.1 0"/>
<feBlend mode="normal" in2="BackgroundImageFix" result="effect1_dropShadow_26_704"/>
<feBlend mode="normal" in="SourceGraphic" in2="effect1_dropShadow_26_704" result="shape"/>
</filter>
<radialGradient id="paint0_radial_26_704" cx="0" cy="0" r="1" gradientUnits="userSpaceOnUse" gradientTransform="translate(359.09 250.342) rotate(2.95944) scale(51.4787 69.3246)">
<stop stop-color="#4583FA"/>
<stop offset="0.508821" stop-color="#383ECB"/>
<stop offset="1" stop-color="#383ECB" stop-opacity="0"/>
</radialGradient>
<radialGradient id="paint1_radial_26_704" cx="0" cy="0" r="1" gradientUnits="userSpaceOnUse" gradientTransform="translate(359.97 316.849) rotate(-23.31) scale(87.906 28.665)">
<stop stop-color="#DC3DAA"/>
<stop offset="0.11" stop-color="#B5328C"/>
<stop offset="0.28" stop-color="#7F2362"/>
<stop offset="0.45" stop-color="#51173F"/>
<stop offset="0.61" stop-color="#2E0D23"/>
<stop offset="0.76" stop-color="#150610"/>
<stop offset="0.89" stop-color="#050104"/>
<stop offset="1"/>
</radialGradient>
<linearGradient id="paint2_linear_26_704" x1="315.74" y1="293.18" x2="394.99" y2="372.68" gradientUnits="userSpaceOnUse">
<stop stop-color="#5513AB"/>
<stop offset="1" stop-color="#BE3BFF"/>
</linearGradient>
<linearGradient id="paint3_linear_26_704" x1="295.985" y1="330.39" x2="397.523" y2="331.545" gradientUnits="userSpaceOnUse">
<stop stop-color="#2CB2E7"/>
<stop offset="1" stop-color="#94B1EB"/>
</linearGradient>
<linearGradient id="paint4_linear_26_704" x1="346.87" y1="330.07" x2="329.5" y2="360.16" gradientUnits="userSpaceOnUse">
<stop stop-color="#5513AB"/>
<stop offset="1" stop-color="#BE3BFF"/>
</linearGradient>
<linearGradient id="paint5_linear_26_704" x1="450.485" y1="338.39" x2="259.543" y2="419.864" gradientUnits="userSpaceOnUse">
<stop stop-color="#2CB2E7"/>
<stop offset="1" stop-color="#94B1EB"/>
</linearGradient>
<linearGradient id="paint6_linear_26_704" x1="236.32" y1="359.11" x2="315.07" y2="437.61" gradientUnits="userSpaceOnUse">
<stop stop-color="#5513AB"/>
<stop offset="1" stop-color="#BE3BFF"/>
</linearGradient>
<linearGradient id="paint7_linear_26_704" x1="239.852" y1="371.97" x2="324.203" y2="425.523" gradientUnits="userSpaceOnUse">
<stop stop-color="#2CB2E7"/>
<stop offset="1" stop-color="#94B1EB"/>
</linearGradient>
<linearGradient id="paint8_linear_26_704" x1="318.242" y1="351.581" x2="292.772" y2="395.691" gradientUnits="userSpaceOnUse">
<stop stop-color="#5513AB"/>
<stop offset="1" stop-color="#BE3BFF"/>
</linearGradient>
<linearGradient id="paint9_linear_26_704" x1="284.996" y1="401.351" x2="341.636" y2="348.167" gradientUnits="userSpaceOnUse">
<stop stop-color="#94B1EB"/>
<stop offset="1" stop-color="#2CB2E7"/>
</linearGradient>
<linearGradient id="paint10_linear_26_704" x1="231.98" y1="411.14" x2="353.06" y2="431.43" gradientUnits="userSpaceOnUse">
<stop stop-color="#5513AB"/>
<stop offset="1" stop-color="#BE3BFF"/>
</linearGradient>
<linearGradient id="paint11_linear_26_704" x1="242.32" y1="417.85" x2="338.9" y2="415.903" gradientUnits="userSpaceOnUse">
<stop offset="0.0820142" stop-color="#1CA8DF"/>
<stop offset="1" stop-color="#94B1EB"/>
</linearGradient>
<linearGradient id="paint12_linear_26_704" x1="265.62" y1="311.34" x2="380.12" y2="424.59" gradientUnits="userSpaceOnUse">
<stop stop-color="#5513AB"/>
<stop offset="1" stop-color="#BE3BFF"/>
</linearGradient>
<linearGradient id="paint13_linear_26_704" x1="267.485" y1="340.39" x2="371.267" y2="371.288" gradientUnits="userSpaceOnUse">
<stop stop-color="#2CB2E7"/>
<stop offset="1" stop-color="#94B1EB"/>
</linearGradient>
<linearGradient id="paint14_linear_26_704" x1="415.79" y1="219.3" x2="383.79" y2="326.8" gradientUnits="userSpaceOnUse">
<stop stop-color="#5513AB"/>
<stop offset="1" stop-color="#BE3BFF"/>
</linearGradient>
<linearGradient id="paint15_linear_26_704" x1="423.485" y1="250.89" x2="425.808" y2="343.428" gradientUnits="userSpaceOnUse">
<stop stop-color="#2CB2E7"/>
<stop offset="1" stop-color="#94B1EB"/>
</linearGradient>
<linearGradient id="paint16_linear_26_704" x1="417.985" y1="301.39" x2="473.985" y2="255.39" gradientUnits="userSpaceOnUse">
<stop stop-color="#2CB2E7"/>
<stop offset="1" stop-color="#94B1EB"/>
</linearGradient>
<linearGradient id="paint17_linear_26_704" x1="482.985" y1="210.89" x2="521.523" y2="185.204" gradientUnits="userSpaceOnUse">
<stop stop-color="#2CB2E7"/>
<stop offset="1" stop-color="#94B1EB"/>
</linearGradient>
<linearGradient id="paint18_linear_26_704" x1="367.323" y1="320.637" x2="457.527" y2="423.255" gradientUnits="userSpaceOnUse">
<stop stop-color="#228FE0"/>
<stop offset="1" stop-color="#94B1EB" stop-opacity="0"/>
</linearGradient>
<linearGradient id="paint19_linear_26_704" x1="444.535" y1="101.77" x2="444.535" y2="262.34" gradientUnits="userSpaceOnUse">
<stop stop-color="#228FE0"/>
<stop offset="1" stop-color="#94B1EB"/>
</linearGradient>
<radialGradient id="paint20_radial_26_704" cx="0" cy="0" r="1" gradientUnits="userSpaceOnUse" gradientTransform="translate(404.066 312.436) scale(38.822 16.121)">
<stop stop-color="#0A75BF"/>
<stop offset="1" stop-color="white" stop-opacity="0"/>
</radialGradient>
<linearGradient id="paint21_linear_26_704" x1="334.71" y1="169.42" x2="420.58" y2="314.86" gradientUnits="userSpaceOnUse">
<stop offset="0.06" stop-color="#000E41"/>
<stop offset="0.23" stop-color="#020943"/>
<stop offset="0.32" stop-color="#08134B"/>
<stop offset="0.39" stop-color="#132258"/>
<stop offset="0.42" stop-color="#1B2A61"/>
<stop offset="0.47" stop-color="#1F3365"/>
<stop offset="0.53" stop-color="#2C3C73"/>
<stop offset="0.6" stop-color="#415188"/>
<stop offset="0.66" stop-color="#5F6FA7"/>
<stop offset="0.69" stop-color="#707CB8"/>
<stop offset="0.7" stop-color="#6867AE"/>
<stop offset="0.73" stop-color="#46498D"/>
<stop offset="0.76" stop-color="#2E3175"/>
<stop offset="0.79" stop-color="#202766"/>
<stop offset="0.81" stop-color="#1C1B61"/>
<stop offset="0.86" stop-color="#111855"/>
<stop offset="0.94" stop-color="#090446"/>
<stop offset="1" stop-color="#010041"/>
</linearGradient>
<linearGradient id="paint22_linear_26_704" x1="312.012" y1="200.985" x2="430.011" y2="200.985" gradientUnits="userSpaceOnUse">
<stop stop-color="#311B61"/>
<stop offset="0.2" stop-color="#290F52"/>
<stop offset="0.49" stop-color="#200041"/>
<stop offset="1" stop-color="#0F001F"/>
</linearGradient>
<radialGradient id="paint23_radial_26_704" cx="0" cy="0" r="1" gradientUnits="userSpaceOnUse" gradientTransform="translate(396.25 205.75) scale(32.55 32.55)">
<stop stop-color="white"/>
<stop offset="1"/>
</radialGradient>
<radialGradient id="paint24_radial_26_704" cx="0" cy="0" r="1" gradientUnits="userSpaceOnUse" gradientTransform="translate(291.362 337.664) rotate(59.96) scale(10.276 25.69)">
<stop stop-color="#470186"/>
<stop offset="0.15" stop-color="#330160"/>
<stop offset="0.31" stop-color="#21003D"/>
<stop offset="0.48" stop-color="#120022"/>
<stop offset="0.65" stop-color="#08000F"/>
<stop offset="0.82" stop-color="#020004"/>
<stop offset="1"/>
</radialGradient>
<radialGradient id="paint25_radial_26_704" cx="0" cy="0" r="1" gradientUnits="userSpaceOnUse" gradientTransform="translate(370.619 244.271) rotate(0.136484) scale(64.2035 96.3053)">
<stop stop-color="#63DAFF"/>
<stop offset="0.41" stop-color="#1976AB"/>
<stop offset="0.62" stop-color="#1B6DB8"/>
<stop offset="0.82" stop-color="#1D8BC9"/>
<stop offset="1" stop-color="#24A1D6"/>
</radialGradient>
<radialGradient id="paint26_radial_26_704" cx="0" cy="0" r="1" gradientUnits="userSpaceOnUse" gradientTransform="translate(370.619 244.271) rotate(0.13648) scale(45.8597 68.7895)">
<stop stop-color="#FF63CE"/>
<stop offset="0.41" stop-color="#9F19AB"/>
<stop offset="0.62" stop-color="#901BB8"/>
<stop offset="0.82" stop-color="#7C1DC9"/>
<stop offset="0.99" stop-color="#6D23D5"/>
<stop offset="1" stop-color="#6B24D6"/>
</radialGradient>
<radialGradient id="paint27_radial_26_704" cx="0" cy="0" r="1" gradientUnits="userSpaceOnUse" gradientTransform="translate(370.632 244.271) rotate(0.135509) scale(45.8552 68.7815)">
<stop stop-color="#63DAFF"/>
<stop offset="0.41" stop-color="#1976AB"/>
<stop offset="0.62" stop-color="#1B6DB8"/>
<stop offset="0.82" stop-color="#1D8BC9"/>
<stop offset="1" stop-color="#24A1D6"/>
</radialGradient>
<radialGradient id="paint28_radial_26_704" cx="0" cy="0" r="1" gradientUnits="userSpaceOnUse" gradientTransform="translate(371.817 244.006) scale(27.66 41.49)">
<stop stop-color="#FF63CE"/>
<stop offset="0.41" stop-color="#9F19AB"/>
<stop offset="0.62" stop-color="#901BB8"/>
<stop offset="0.82" stop-color="#7C1DC9"/>
<stop offset="0.99" stop-color="#6D23D5"/>
<stop offset="1" stop-color="#6B24D6"/>
</radialGradient>
<radialGradient id="paint29_radial_26_704" cx="0" cy="0" r="1" gradientUnits="userSpaceOnUse" gradientTransform="translate(371.843 244.008) scale(27.6636 41.4884)">
<stop stop-color="#63DAFF"/>
<stop offset="0.41" stop-color="#1976AB"/>
<stop offset="0.62" stop-color="#1B6DB8"/>
<stop offset="0.82" stop-color="#1D8BC9"/>
<stop offset="1" stop-color="#24A1D6"/>
</radialGradient>
<linearGradient id="paint30_linear_26_704" x1="359.057" y1="252.107" x2="378.007" y2="240.117" gradientUnits="userSpaceOnUse">
<stop offset="0.04" stop-color="#1953AB"/>
<stop offset="0.24" stop-color="#256EB1"/>
<stop offset="0.666667" stop-color="#4485E7"/>
<stop offset="0.989583" stop-color="#68A4FF"/>
</linearGradient>
<radialGradient id="paint31_radial_26_704" cx="0" cy="0" r="1" gradientUnits="userSpaceOnUse" gradientTransform="translate(378.77 241.695) scale(60.31 90.465)">
<stop stop-color="white"/>
<stop offset="0.07" stop-color="#D8D8D8"/>
<stop offset="0.16" stop-color="#A6A6A6"/>
<stop offset="0.26" stop-color="#797979"/>
<stop offset="0.37" stop-color="#545454"/>
<stop offset="0.47" stop-color="#353535"/>
<stop offset="0.59" stop-color="#1E1E1E"/>
<stop offset="0.7" stop-color="#0D0D0D"/>
<stop offset="0.84" stop-color="#030303"/>
<stop offset="1"/>
</radialGradient>
<radialGradient id="paint32_radial_26_704" cx="0" cy="0" r="1" gradientUnits="userSpaceOnUse" gradientTransform="translate(376.69 242.37) scale(43.13 64.695)">
<stop stop-color="white"/>
<stop offset="0.07" stop-color="#D8D8D8"/>
<stop offset="0.16" stop-color="#A6A6A6"/>
<stop offset="0.26" stop-color="#797979"/>
<stop offset="0.37" stop-color="#545454"/>
<stop offset="0.47" stop-color="#353535"/>
<stop offset="0.59" stop-color="#1E1E1E"/>
<stop offset="0.7" stop-color="#0D0D0D"/>
<stop offset="0.84" stop-color="#030303"/>
<stop offset="1"/>
</radialGradient>
<radialGradient id="paint33_radial_26_704" cx="0" cy="0" r="1" gradientUnits="userSpaceOnUse" gradientTransform="translate(374.61 243.06) scale(25.96 38.94)">
<stop stop-color="white"/>
<stop offset="0.07" stop-color="#D8D8D8"/>
<stop offset="0.16" stop-color="#A6A6A6"/>
<stop offset="0.26" stop-color="#797979"/>
<stop offset="0.37" stop-color="#545454"/>
<stop offset="0.47" stop-color="#353535"/>
<stop offset="0.59" stop-color="#1E1E1E"/>
<stop offset="0.7" stop-color="#0D0D0D"/>
<stop offset="0.84" stop-color="#030303"/>
<stop offset="1"/>
</radialGradient>
<radialGradient id="paint34_radial_26_704" cx="0" cy="0" r="1" gradientUnits="userSpaceOnUse" gradientTransform="translate(372.63 243.8) scale(8.76999 8.77)">
<stop stop-color="white"/>
<stop offset="0.07" stop-color="#D8D8D8"/>
<stop offset="0.16" stop-color="#A6A6A6"/>
<stop offset="0.26" stop-color="#797979"/>
<stop offset="0.37" stop-color="#545454"/>
<stop offset="0.47" stop-color="#353535"/>
<stop offset="0.59" stop-color="#1E1E1E"/>
<stop offset="0.7" stop-color="#0D0D0D"/>
<stop offset="0.84" stop-color="#030303"/>
<stop offset="1"/>
</radialGradient>
<radialGradient id="paint35_radial_26_704" cx="0" cy="0" r="1" gradientUnits="userSpaceOnUse" gradientTransform="translate(443.187 288.324) rotate(68.44) scale(8.00551 17.79)">
<stop stop-color="#972A74"/>
<stop offset="0.04" stop-color="#8A266A"/>
<stop offset="0.19" stop-color="#601B4A"/>
<stop offset="0.35" stop-color="#3D112F"/>
<stop offset="0.51" stop-color="#230A1B"/>
<stop offset="0.67" stop-color="#0F040C"/>
<stop offset="0.83" stop-color="#040103"/>
<stop offset="1"/>
</radialGradient>
<radialGradient id="paint36_radial_26_704" cx="0" cy="0" r="1" gradientUnits="userSpaceOnUse" gradientTransform="translate(364.86 380.67) scale(20.55 20.55)">
<stop stop-color="white"/>
<stop offset="1"/>
</radialGradient>
<radialGradient id="paint37_radial_26_704" cx="0" cy="0" r="1" gradientUnits="userSpaceOnUse" gradientTransform="translate(406.03 337.23) scale(26.73 26.73)">
<stop stop-color="white"/>
<stop offset="1"/>
</radialGradient>
<radialGradient id="paint38_radial_26_704" cx="0" cy="0" r="1" gradientUnits="userSpaceOnUse" gradientTransform="translate(327.48 415.63) scale(23.24 23.24)">
<stop stop-color="white"/>
<stop offset="1"/>
</radialGradient>
<radialGradient id="paint39_radial_26_704" cx="0" cy="0" r="1" gradientUnits="userSpaceOnUse" gradientTransform="translate(476.14 277.84) scale(26.09 26.09)">
<stop stop-color="white"/>
<stop offset="1"/>
</radialGradient>
<radialGradient id="paint40_radial_26_704" cx="0" cy="0" r="1" gradientUnits="userSpaceOnUse" gradientTransform="translate(494.91 161.5) scale(54.67 54.67)">
<stop stop-color="white"/>
<stop offset="1"/>
</radialGradient>
<linearGradient id="paint41_linear_26_704" x1="503.735" y1="256.69" x2="503.735" y2="270.52" gradientUnits="userSpaceOnUse">
<stop stop-color="#228FE0"/>
<stop offset="1" stop-color="#2CB2E7"/>
</linearGradient>
<linearGradient id="paint42_linear_26_704" x1="504.075" y1="282.72" x2="536.605" y2="304.432" gradientUnits="userSpaceOnUse">
<stop stop-color="#228FE0"/>
<stop offset="1" stop-color="#7FC0F1"/>
</linearGradient>
<linearGradient id="paint43_linear_26_704" x1="504.065" y1="371.028" x2="450.156" y2="300.824" gradientUnits="userSpaceOnUse">
<stop stop-color="#85C3EA"/>
<stop offset="1" stop-color="#75C3F4"/>
</linearGradient>
<radialGradient id="paint44_radial_26_704" cx="0" cy="0" r="1" gradientUnits="userSpaceOnUse" gradientTransform="translate(493.76 289.3) scale(37.73 37.73)">
<stop stop-color="white"/>
<stop offset="1"/>
</radialGradient>
<linearGradient id="paint45_linear_26_704" x1="486.57" y1="286.09" x2="486.57" y2="299.93" gradientUnits="userSpaceOnUse">
<stop stop-color="#228FE0"/>
<stop offset="1" stop-color="#2CB2E7"/>
</linearGradient>
<linearGradient id="paint46_linear_26_704" x1="486.905" y1="308.499" x2="514.913" y2="331.575" gradientUnits="userSpaceOnUse">
<stop stop-color="#228FE0"/>
<stop offset="1" stop-color="#7FC0F1"/>
</linearGradient>
<linearGradient id="paint47_linear_26_704" x1="486.895" y1="380.034" x2="446.349" y2="314.852" gradientUnits="userSpaceOnUse">
<stop stop-color="#85C3EA"/>
<stop offset="1" stop-color="#75C3F4"/>
</linearGradient>
<radialGradient id="paint48_radial_26_704" cx="0" cy="0" r="1" gradientUnits="userSpaceOnUse" gradientTransform="translate(476.59 313.82) scale(31.14 31.14)">
<stop stop-color="white"/>
<stop offset="1"/>
</radialGradient>
<linearGradient id="paint49_linear_26_704" x1="469" y1="316.61" x2="469" y2="330.44" gradientUnits="userSpaceOnUse">
<stop stop-color="#228FE0"/>
<stop offset="1" stop-color="#2CB2E7"/>
</linearGradient>
<linearGradient id="paint50_linear_26_704" x1="469.335" y1="335.123" x2="490.615" y2="358.527" gradientUnits="userSpaceOnUse">
<stop stop-color="#228FE0"/>
<stop offset="1" stop-color="#7FC0F1"/>
</linearGradient>
<linearGradient id="paint51_linear_26_704" x1="469.325" y1="388.711" x2="443.383" y2="333.087" gradientUnits="userSpaceOnUse">
<stop stop-color="#85C3EA"/>
<stop offset="1" stop-color="#75C3F4"/>
</linearGradient>
<radialGradient id="paint52_radial_26_704" cx="0" cy="0" r="1" gradientUnits="userSpaceOnUse" gradientTransform="translate(459.03 339.11) scale(24.27 24.27)">
<stop stop-color="white"/>
<stop offset="1"/>
</radialGradient>
<linearGradient id="paint53_linear_26_704" x1="451.65" y1="350.01" x2="451.65" y2="363.85" gradientUnits="userSpaceOnUse">
<stop stop-color="#228FE0"/>
<stop offset="1" stop-color="#2CB2E7"/>
</linearGradient>
<linearGradient id="paint54_linear_26_704" x1="458.26" y1="379.14" x2="448.25" y2="396.46" gradientUnits="userSpaceOnUse">
<stop stop-color="#5513AB"/>
<stop offset="1" stop-color="#BE3BFF"/>
</linearGradient>
<linearGradient id="paint55_linear_26_704" x1="451.985" y1="364.4" x2="463.985" y2="384.9" gradientUnits="userSpaceOnUse">
<stop stop-color="#228FE0"/>
<stop offset="1" stop-color="#7FC0F1"/>
</linearGradient>
<linearGradient id="paint56_linear_26_704" x1="451.985" y1="398.9" x2="439.985" y2="358.9" gradientUnits="userSpaceOnUse">
<stop stop-color="#85C3EA"/>
<stop offset="1" stop-color="#75C3F4"/>
</linearGradient>
<radialGradient id="paint57_radial_26_704" cx="0" cy="0" r="1" gradientUnits="userSpaceOnUse" gradientTransform="translate(441.68 366.96) scale(17.44 17.44)">
<stop stop-color="white"/>
<stop offset="1"/>
</radialGradient>
<linearGradient id="paint58_linear_26_704" x1="434.25" y1="375.77" x2="434.25" y2="389.61" gradientUnits="userSpaceOnUse">
<stop stop-color="#228FE0"/>
<stop offset="1" stop-color="#2CB2E7"/>
</linearGradient>
<linearGradient id="paint59_linear_26_704" x1="434.319" y1="386.968" x2="439.664" y2="401.886" gradientUnits="userSpaceOnUse">
<stop stop-color="#228FE0"/>
<stop offset="1" stop-color="#7FC0F1"/>
</linearGradient>
<linearGradient id="paint60_linear_26_704" x1="434.585" y1="408.357" x2="429.852" y2="382.561" gradientUnits="userSpaceOnUse">
<stop stop-color="#85C3EA"/>
<stop offset="1" stop-color="#75C3F4"/>
</linearGradient>
<radialGradient id="paint61_radial_26_704" cx="0" cy="0" r="1" gradientUnits="userSpaceOnUse" gradientTransform="translate(424.28 388.83) scale(13.34 13.34)">
<stop stop-color="white"/>
<stop offset="1"/>
</radialGradient>
<linearGradient id="paint62_linear_26_704" x1="517.17" y1="354.145" x2="536.32" y2="354.145" gradientUnits="userSpaceOnUse">
<stop stop-color="#1A89B9"/>
<stop offset="0.27" stop-color="#3BC4FF"/>
<stop offset="0.36" stop-color="#2DABE1"/>
<stop offset="0.46" stop-color="#1F89C4"/>
<stop offset="0.54" stop-color="#167AB2"/>
<stop offset="0.59" stop-color="#1374AB"/>
<stop offset="0.68" stop-color="#1670B1"/>
<stop offset="0.82" stop-color="#1E87C2"/>
<stop offset="0.9" stop-color="#2386CD"/>
<stop offset="1" stop-color="#1988B8"/>
</linearGradient>
<linearGradient id="paint63_linear_26_704" x1="526.81" y1="327.8" x2="526.81" y2="364.05" gradientUnits="userSpaceOnUse">
<stop stop-color="#E2953F"/>
<stop offset="0.08" stop-color="#BD7C35"/>
<stop offset="0.21" stop-color="#8B5C27"/>
<stop offset="0.34" stop-color="#60401B"/>
<stop offset="0.46" stop-color="#3E2911"/>
<stop offset="0.59" stop-color="#23170A"/>
<stop offset="0.73" stop-color="#0F0A04"/>
<stop offset="0.86" stop-color="#040201"/>
<stop offset="1"/>
</linearGradient>
<linearGradient id="paint64_linear_26_704" x1="532.3" y1="312.91" x2="523.38" y2="327.58" gradientUnits="userSpaceOnUse">
<stop stop-color="#5513AB"/>
<stop offset="1" stop-color="#BE3BFF"/>
</linearGradient>
<radialGradient id="paint65_radial_26_704" cx="0" cy="0" r="1" gradientUnits="userSpaceOnUse" gradientTransform="translate(526.81 325.17) scale(7.20001 7.2)">
<stop stop-color="white"/>
<stop offset="1"/>
</radialGradient>
<linearGradient id="paint66_linear_26_704" x1="498" y1="373.985" x2="517.15" y2="373.985" gradientUnits="userSpaceOnUse">
<stop stop-color="#1A89B9"/>
<stop offset="0.27" stop-color="#3BC4FF"/>
<stop offset="0.36" stop-color="#2DABE1"/>
<stop offset="0.46" stop-color="#1F89C4"/>
<stop offset="0.54" stop-color="#167AB2"/>
<stop offset="0.59" stop-color="#1374AB"/>
<stop offset="0.68" stop-color="#1670B1"/>
<stop offset="0.82" stop-color="#1E87C2"/>
<stop offset="0.9" stop-color="#2386CD"/>
<stop offset="1" stop-color="#1988B8"/>
</linearGradient>
<linearGradient id="paint67_linear_26_704" x1="507.715" y1="355.72" x2="507.715" y2="388.06" gradientUnits="userSpaceOnUse">
<stop stop-color="#E2953F"/>
<stop offset="0.08" stop-color="#BD7C35"/>
<stop offset="0.21" stop-color="#8B5C27"/>
<stop offset="0.34" stop-color="#60401B"/>
<stop offset="0.46" stop-color="#3E2911"/>
<stop offset="0.59" stop-color="#23170A"/>
<stop offset="0.73" stop-color="#0F0A04"/>
<stop offset="0.86" stop-color="#040201"/>
<stop offset="1"/>
</linearGradient>
<linearGradient id="paint68_linear_26_704" x1="513.13" y1="341.38" x2="504.21" y2="356.05" gradientUnits="userSpaceOnUse">
<stop stop-color="#5513AB"/>
<stop offset="1" stop-color="#BE3BFF"/>
</linearGradient>
<radialGradient id="paint69_radial_26_704" cx="0" cy="0" r="1" gradientUnits="userSpaceOnUse" gradientTransform="translate(507.64 353.64) scale(7.2 7.20002)">
<stop stop-color="white"/>
<stop offset="1"/>
</radialGradient>
<linearGradient id="paint70_linear_26_704" x1="478.63" y1="394.51" x2="497.78" y2="394.51" gradientUnits="userSpaceOnUse">
<stop stop-color="#1A89B9"/>
<stop offset="0.27" stop-color="#3BC4FF"/>
<stop offset="0.36" stop-color="#2DABE1"/>
<stop offset="0.46" stop-color="#1F89C4"/>
<stop offset="0.54" stop-color="#167AB2"/>
<stop offset="0.59" stop-color="#1374AB"/>
<stop offset="0.68" stop-color="#1670B1"/>
<stop offset="0.82" stop-color="#1E87C2"/>
<stop offset="0.9" stop-color="#2386CD"/>
<stop offset="1" stop-color="#1988B8"/>
</linearGradient>
<linearGradient id="paint71_linear_26_704" x1="488.27" y1="384.69" x2="488.27" y2="407" gradientUnits="userSpaceOnUse">
<stop stop-color="#E2953F"/>
<stop offset="0.08" stop-color="#BD7C35"/>
<stop offset="0.21" stop-color="#8B5C27"/>
<stop offset="0.34" stop-color="#60401B"/>
<stop offset="0.46" stop-color="#3E2911"/>
<stop offset="0.59" stop-color="#23170A"/>
<stop offset="0.73" stop-color="#0F0A04"/>
<stop offset="0.86" stop-color="#040201"/>
<stop offset="1"/>
</linearGradient>
<linearGradient id="paint72_linear_26_704" x1="493.75" y1="370.53" x2="484.83" y2="385.21" gradientUnits="userSpaceOnUse">
<stop stop-color="#5513AB"/>
<stop offset="1" stop-color="#BE3BFF"/>
</linearGradient>
<radialGradient id="paint73_radial_26_704" cx="0" cy="0" r="1" gradientUnits="userSpaceOnUse" gradientTransform="translate(488.27 382.8) scale(7.2 7.19998)">
<stop stop-color="white"/>
<stop offset="1"/>
</radialGradient>
<linearGradient id="paint74_linear_26_704" x1="517.17" y1="324.26" x2="536.31" y2="324.26" gradientUnits="userSpaceOnUse">
<stop stop-color="#FFBB96"/>
<stop offset="0.23" stop-color="#FFFBC9"/>
<stop offset="0.54" stop-color="#F9B673"/>
<stop offset="0.64" stop-color="#F9B876"/>
<stop offset="0.72" stop-color="#FABE81"/>
<stop offset="0.81" stop-color="#FCC993"/>
<stop offset="0.86" stop-color="#FED2A3"/>
<stop offset="0.97" stop-color="#FFC28C"/>
</linearGradient>
<linearGradient id="paint75_linear_26_704" x1="517.17" y1="325.37" x2="536.31" y2="325.37" gradientUnits="userSpaceOnUse">
<stop stop-color="#FFBB96"/>
<stop offset="0.23" stop-color="#FFFBC9"/>
<stop offset="0.54" stop-color="#F9B673"/>
<stop offset="0.64" stop-color="#F9B876"/>
<stop offset="0.72" stop-color="#FABE81"/>
<stop offset="0.81" stop-color="#FCC993"/>
<stop offset="0.86" stop-color="#FED2A3"/>
<stop offset="0.97" stop-color="#FFC28C"/>
</linearGradient>
<linearGradient id="paint76_linear_26_704" x1="544.78" y1="301.96" x2="525.75" y2="321.11" gradientUnits="userSpaceOnUse">
<stop offset="0.04" stop-color="#FFBA78"/>
<stop offset="0.4" stop-color="#FFC987"/>
<stop offset="1" stop-color="#FEECA8"/>
</linearGradient>
<radialGradient id="paint77_radial_26_704" cx="0" cy="0" r="1" gradientUnits="userSpaceOnUse" gradientTransform="translate(522.62 324.22) scale(12.23 12.23)">
<stop stop-color="white"/>
<stop offset="1"/>
</radialGradient>
<linearGradient id="paint78_linear_26_704" x1="534.62" y1="312.18" x2="520.39" y2="326.5" gradientUnits="userSpaceOnUse">
<stop offset="0.04" stop-color="#FFBA78"/>
<stop offset="0.4" stop-color="#FFC987"/>
<stop offset="1" stop-color="#FEECA8"/>
</linearGradient>
<radialGradient id="paint79_radial_26_704" cx="0" cy="0" r="1" gradientUnits="userSpaceOnUse" gradientTransform="translate(530.23 315.41) scale(5.38 5.38)">
<stop stop-color="white"/>
<stop offset="1"/>
</radialGradient>
<linearGradient id="paint80_linear_26_704" x1="537.24" y1="309.08" x2="523.81" y2="322.59" gradientUnits="userSpaceOnUse">
<stop stop-color="#FFBB96"/>
<stop offset="0.23" stop-color="#FFFBC9"/>
<stop offset="0.54" stop-color="#F9B673"/>
<stop offset="0.64" stop-color="#F9B876"/>
<stop offset="0.72" stop-color="#FABE81"/>
<stop offset="0.81" stop-color="#FCC993"/>
<stop offset="0.86" stop-color="#FED2A3"/>
<stop offset="0.97" stop-color="#FFC28C"/>
</linearGradient>
<radialGradient id="paint81_radial_26_704" cx="0" cy="0" r="1" gradientUnits="userSpaceOnUse" gradientTransform="translate(591.773 303.14) rotate(-83.4802) scale(4.86496 3.34001)">
<stop stop-color="#F49587"/>
<stop offset="0.12" stop-color="#BD7368"/>
<stop offset="0.24" stop-color="#8B554D"/>
<stop offset="0.36" stop-color="#603B35"/>
<stop offset="0.48" stop-color="#3E2622"/>
<stop offset="0.61" stop-color="#231513"/>
<stop offset="0.74" stop-color="#0F0908"/>
<stop offset="0.86" stop-color="#040202"/>
<stop offset="1"/>
</radialGradient>
<radialGradient id="paint82_radial_26_704" cx="0" cy="0" r="1" gradientUnits="userSpaceOnUse" gradientTransform="translate(527.875 326.459) rotate(-70.3462) scale(2.053 4.23606)">
<stop stop-color="#F49587"/>
<stop offset="0.12" stop-color="#BD7368"/>
<stop offset="0.24" stop-color="#8B554D"/>
<stop offset="0.36" stop-color="#603B35"/>
<stop offset="0.48" stop-color="#3E2622"/>
<stop offset="0.61" stop-color="#231513"/>
<stop offset="0.74" stop-color="#0F0908"/>
<stop offset="0.86" stop-color="#040202"/>
<stop offset="1"/>
</radialGradient>
<linearGradient id="paint83_linear_26_704" x1="521.69" y1="320.17" x2="532.23" y2="320.17" gradientUnits="userSpaceOnUse">
<stop stop-color="#FFBB96"/>
<stop offset="0.23" stop-color="#FFFBC9"/>
<stop offset="0.54" stop-color="#F9B673"/>
<stop offset="0.64" stop-color="#F9B876"/>
<stop offset="0.72" stop-color="#FABE81"/>
<stop offset="0.81" stop-color="#FCC993"/>
<stop offset="0.86" stop-color="#FED2A3"/>
<stop offset="0.97" stop-color="#FFC28C"/>
</linearGradient>
<linearGradient id="paint84_linear_26_704" x1="516.3" y1="328.68" x2="528.57" y2="318.11" gradientUnits="userSpaceOnUse">
<stop offset="0.04" stop-color="#FFBA78"/>
<stop offset="0.4" stop-color="#FFC987"/>
<stop offset="1" stop-color="#FEECA8"/>
</linearGradient>
<radialGradient id="paint85_radial_26_704" cx="0" cy="0" r="1" gradientUnits="userSpaceOnUse" gradientTransform="translate(528.89 318.13) scale(4.31001 4.31)">
<stop stop-color="#F49587"/>
<stop offset="0.12" stop-color="#BD7368"/>
<stop offset="0.24" stop-color="#8B554D"/>
<stop offset="0.36" stop-color="#603B35"/>
<stop offset="0.48" stop-color="#3E2622"/>
<stop offset="0.61" stop-color="#231513"/>
<stop offset="0.74" stop-color="#0F0908"/>
<stop offset="0.86" stop-color="#040202"/>
<stop offset="1"/>
</radialGradient>
<linearGradient id="paint86_linear_26_704" x1="498.1" y1="352.54" x2="517.25" y2="352.54" gradientUnits="userSpaceOnUse">
<stop stop-color="#FFBB96"/>
<stop offset="0.23" stop-color="#FFFBC9"/>
<stop offset="0.54" stop-color="#F9B673"/>
<stop offset="0.64" stop-color="#F9B876"/>
<stop offset="0.72" stop-color="#FABE81"/>
<stop offset="0.81" stop-color="#FCC993"/>
<stop offset="0.86" stop-color="#FED2A3"/>
<stop offset="0.97" stop-color="#FFC28C"/>
</linearGradient>
<linearGradient id="paint87_linear_26_704" x1="498.1" y1="353.65" x2="517.25" y2="353.65" gradientUnits="userSpaceOnUse">
<stop stop-color="#FFBB96"/>
<stop offset="0.23" stop-color="#FFFBC9"/>
<stop offset="0.54" stop-color="#F9B673"/>
<stop offset="0.64" stop-color="#F9B876"/>
<stop offset="0.72" stop-color="#FABE81"/>
<stop offset="0.81" stop-color="#FCC993"/>
<stop offset="0.86" stop-color="#FED2A3"/>
<stop offset="0.97" stop-color="#FFC28C"/>
</linearGradient>
<linearGradient id="paint88_linear_26_704" x1="525.71" y1="330.24" x2="506.68" y2="349.39" gradientUnits="userSpaceOnUse">
<stop offset="0.04" stop-color="#FFBA78"/>
<stop offset="0.4" stop-color="#FFC987"/>
<stop offset="1" stop-color="#FEECA8"/>
</linearGradient>
<radialGradient id="paint89_radial_26_704" cx="0" cy="0" r="1" gradientUnits="userSpaceOnUse" gradientTransform="translate(503.55 352.5) scale(12.23 12.23)">
<stop stop-color="white"/>
<stop offset="1"/>
</radialGradient>
<linearGradient id="paint90_linear_26_704" x1="515.55" y1="340.47" x2="501.33" y2="354.78" gradientUnits="userSpaceOnUse">
<stop offset="0.04" stop-color="#FFBA78"/>
<stop offset="0.4" stop-color="#FFC987"/>
<stop offset="1" stop-color="#FEECA8"/>
</linearGradient>
<radialGradient id="paint91_radial_26_704" cx="0" cy="0" r="1" gradientUnits="userSpaceOnUse" gradientTransform="translate(511.16 343.69) scale(5.38 5.37999)">
<stop stop-color="white"/>
<stop offset="1"/>
</radialGradient>
<linearGradient id="paint92_linear_26_704" x1="518.17" y1="337.37" x2="504.75" y2="350.87" gradientUnits="userSpaceOnUse">
<stop stop-color="#FFBB96"/>
<stop offset="0.23" stop-color="#FFFBC9"/>
<stop offset="0.54" stop-color="#F9B673"/>
<stop offset="0.64" stop-color="#F9B876"/>
<stop offset="0.72" stop-color="#FABE81"/>
<stop offset="0.81" stop-color="#FCC993"/>
<stop offset="0.86" stop-color="#FED2A3"/>
<stop offset="0.97" stop-color="#FFC28C"/>
</linearGradient>
<radialGradient id="paint93_radial_26_704" cx="0" cy="0" r="1" gradientUnits="userSpaceOnUse" gradientTransform="translate(572.785 331.048) rotate(-83.4802) scale(4.86497 3.34001)">
<stop stop-color="#F49587"/>
<stop offset="0.12" stop-color="#BD7368"/>
<stop offset="0.24" stop-color="#8B554D"/>
<stop offset="0.36" stop-color="#603B35"/>
<stop offset="0.48" stop-color="#3E2622"/>
<stop offset="0.61" stop-color="#231513"/>
<stop offset="0.74" stop-color="#0F0908"/>
<stop offset="0.86" stop-color="#040202"/>
<stop offset="1"/>
</radialGradient>
<radialGradient id="paint94_radial_26_704" cx="0" cy="0" r="1" gradientUnits="userSpaceOnUse" gradientTransform="translate(508.335 354.23) rotate(-70.3461) scale(2.053 4.23606)">
<stop stop-color="#F49587"/>
<stop offset="0.12" stop-color="#BD7368"/>
<stop offset="0.24" stop-color="#8B554D"/>
<stop offset="0.36" stop-color="#603B35"/>
<stop offset="0.48" stop-color="#3E2622"/>
<stop offset="0.61" stop-color="#231513"/>
<stop offset="0.74" stop-color="#0F0908"/>
<stop offset="0.86" stop-color="#040202"/>
<stop offset="1"/>
</radialGradient>
<linearGradient id="paint95_linear_26_704" x1="502.78" y1="348.59" x2="513.33" y2="348.59" gradientUnits="userSpaceOnUse">
<stop stop-color="#FFBB96"/>
<stop offset="0.23" stop-color="#FFFBC9"/>
<stop offset="0.54" stop-color="#F9B673"/>
<stop offset="0.64" stop-color="#F9B876"/>
<stop offset="0.72" stop-color="#FABE81"/>
<stop offset="0.81" stop-color="#FCC993"/>
<stop offset="0.86" stop-color="#FED2A3"/>
<stop offset="0.97" stop-color="#FFC28C"/>
</linearGradient>
<linearGradient id="paint96_linear_26_704" x1="497.39" y1="357.09" x2="509.67" y2="346.53" gradientUnits="userSpaceOnUse">
<stop offset="0.04" stop-color="#FFBA78"/>
<stop offset="0.4" stop-color="#FFC987"/>
<stop offset="1" stop-color="#FEECA8"/>
</linearGradient>
<radialGradient id="paint97_radial_26_704" cx="0" cy="0" r="1" gradientUnits="userSpaceOnUse" gradientTransform="translate(509.98 346.55) scale(4.31001 4.31)">
<stop stop-color="#F49587"/>
<stop offset="0.12" stop-color="#BD7368"/>
<stop offset="0.24" stop-color="#8B554D"/>
<stop offset="0.36" stop-color="#603B35"/>
<stop offset="0.48" stop-color="#3E2622"/>
<stop offset="0.61" stop-color="#231513"/>
<stop offset="0.74" stop-color="#0F0908"/>
<stop offset="0.86" stop-color="#040202"/>
<stop offset="1"/>
</radialGradient>
<linearGradient id="paint98_linear_26_704" x1="478.54" y1="381.75" x2="497.69" y2="381.75" gradientUnits="userSpaceOnUse">
<stop stop-color="#FFBB96"/>
<stop offset="0.23" stop-color="#FFFBC9"/>
<stop offset="0.54" stop-color="#F9B673"/>
<stop offset="0.64" stop-color="#F9B876"/>
<stop offset="0.72" stop-color="#FABE81"/>
<stop offset="0.81" stop-color="#FCC993"/>
<stop offset="0.86" stop-color="#FED2A3"/>
<stop offset="0.97" stop-color="#FFC28C"/>
</linearGradient>
<linearGradient id="paint99_linear_26_704" x1="478.54" y1="382.86" x2="497.69" y2="382.86" gradientUnits="userSpaceOnUse">
<stop stop-color="#FFBB96"/>
<stop offset="0.23" stop-color="#FFFBC9"/>
<stop offset="0.54" stop-color="#F9B673"/>
<stop offset="0.64" stop-color="#F9B876"/>
<stop offset="0.72" stop-color="#FABE81"/>
<stop offset="0.81" stop-color="#FCC993"/>
<stop offset="0.86" stop-color="#FED2A3"/>
<stop offset="0.97" stop-color="#FFC28C"/>
</linearGradient>
<linearGradient id="paint100_linear_26_704" x1="506.15" y1="359.45" x2="487.12" y2="378.6" gradientUnits="userSpaceOnUse">
<stop offset="0.04" stop-color="#FFBA78"/>
<stop offset="0.4" stop-color="#FFC987"/>
<stop offset="1" stop-color="#FEECA8"/>
</linearGradient>
<radialGradient id="paint101_radial_26_704" cx="0" cy="0" r="1" gradientUnits="userSpaceOnUse" gradientTransform="translate(483.99 381.71) scale(12.23 12.23)">
<stop stop-color="white"/>
<stop offset="1"/>
</radialGradient>
<linearGradient id="paint102_linear_26_704" x1="495.99" y1="369.68" x2="481.77" y2="383.99" gradientUnits="userSpaceOnUse">
<stop offset="0.04" stop-color="#FFBA78"/>
<stop offset="0.4" stop-color="#FFC987"/>
<stop offset="1" stop-color="#FEECA8"/>
</linearGradient>
<radialGradient id="paint103_radial_26_704" cx="0" cy="0" r="1" gradientUnits="userSpaceOnUse" gradientTransform="translate(491.6 372.9) scale(5.38 5.37999)">
<stop stop-color="white"/>
<stop offset="1"/>
</radialGradient>
<linearGradient id="paint104_linear_26_704" x1="498.61" y1="366.58" x2="485.19" y2="380.09" gradientUnits="userSpaceOnUse">
<stop stop-color="#FFBB96"/>
<stop offset="0.23" stop-color="#FFFBC9"/>
<stop offset="0.54" stop-color="#F9B673"/>
<stop offset="0.64" stop-color="#F9B876"/>
<stop offset="0.72" stop-color="#FABE81"/>
<stop offset="0.81" stop-color="#FCC993"/>
<stop offset="0.86" stop-color="#FED2A3"/>
<stop offset="0.97" stop-color="#FFC28C"/>
</linearGradient>
<radialGradient id="paint105_radial_26_704" cx="0" cy="0" r="1" gradientUnits="userSpaceOnUse" gradientTransform="translate(553.304 359.878) rotate(-83.4802) scale(4.86497 3.34001)">
<stop stop-color="#F49587"/>
<stop offset="0.12" stop-color="#BD7368"/>
<stop offset="0.24" stop-color="#8B554D"/>
<stop offset="0.36" stop-color="#603B35"/>
<stop offset="0.48" stop-color="#3E2622"/>
<stop offset="0.61" stop-color="#231513"/>
<stop offset="0.74" stop-color="#0F0908"/>
<stop offset="0.86" stop-color="#040202"/>
<stop offset="1"/>
</radialGradient>
<radialGradient id="paint106_radial_26_704" cx="0" cy="0" r="1" gradientUnits="userSpaceOnUse" gradientTransform="translate(488.286 382.915) rotate(-70.3462) scale(2.05301 4.23607)">
<stop stop-color="#F49587"/>
<stop offset="0.12" stop-color="#BD7368"/>
<stop offset="0.24" stop-color="#8B554D"/>
<stop offset="0.36" stop-color="#603B35"/>
<stop offset="0.48" stop-color="#3E2622"/>
<stop offset="0.61" stop-color="#231513"/>
<stop offset="0.74" stop-color="#0F0908"/>
<stop offset="0.86" stop-color="#040202"/>
<stop offset="1"/>
</radialGradient>
<linearGradient id="paint107_linear_26_704" x1="483.15" y1="377.67" x2="493.7" y2="377.67" gradientUnits="userSpaceOnUse">
<stop stop-color="#FFBB96"/>
<stop offset="0.23" stop-color="#FFFBC9"/>
<stop offset="0.54" stop-color="#F9B673"/>
<stop offset="0.64" stop-color="#F9B876"/>
<stop offset="0.72" stop-color="#FABE81"/>
<stop offset="0.81" stop-color="#FCC993"/>
<stop offset="0.86" stop-color="#FED2A3"/>
<stop offset="0.97" stop-color="#FFC28C"/>
</linearGradient>
<linearGradient id="paint108_linear_26_704" x1="477.76" y1="386.18" x2="490.03" y2="375.61" gradientUnits="userSpaceOnUse">
<stop offset="0.04" stop-color="#FFBA78"/>
<stop offset="0.4" stop-color="#FFC987"/>
<stop offset="1" stop-color="#FEECA8"/>
</linearGradient>
<radialGradient id="paint109_radial_26_704" cx="0" cy="0" r="1" gradientUnits="userSpaceOnUse" gradientTransform="translate(490.35 375.63) scale(4.31 4.31001)">
<stop stop-color="#F49587"/>
<stop offset="0.12" stop-color="#BD7368"/>
<stop offset="0.24" stop-color="#8B554D"/>
<stop offset="0.36" stop-color="#603B35"/>
<stop offset="0.48" stop-color="#3E2622"/>
<stop offset="0.61" stop-color="#231513"/>
<stop offset="0.74" stop-color="#0F0908"/>
<stop offset="0.86" stop-color="#040202"/>
<stop offset="1"/>
</radialGradient>
<linearGradient id="paint110_linear_26_704" x1="370.115" y1="265.836" x2="347.766" y2="215.198" gradientUnits="userSpaceOnUse">
<stop stop-color="white"/>
<stop offset="1" stop-color="#8969C3"/>
</linearGradient>
<linearGradient id="paint111_linear_26_704" x1="374.292" y1="291.889" x2="356.452" y2="240.557" gradientUnits="userSpaceOnUse">
<stop stop-color="#EBE8EF"/>
<stop offset="1" stop-color="#8060B8"/>
</linearGradient>
<linearGradient id="paint112_linear_26_704" x1="369.569" y1="286.62" x2="356.316" y2="235.036" gradientUnits="userSpaceOnUse">
<stop stop-color="#D7D2DF"/>
<stop offset="1" stop-color="#7757AE"/>
</linearGradient>
<linearGradient id="paint113_linear_26_704" x1="374.953" y1="284.59" x2="366.63" y2="233.434" gradientUnits="userSpaceOnUse">
<stop stop-color="#C4BBCE"/>
<stop offset="1" stop-color="#6E4EA3"/>
</linearGradient>
<linearGradient id="paint114_linear_26_704" x1="369.389" y1="269.124" x2="383.53" y2="235.628" gradientUnits="userSpaceOnUse">
<stop stop-color="#4D326D"/>
<stop offset="1" stop-color="#371762"/>
</linearGradient>
<linearGradient id="paint115_linear_26_704" x1="287.421" y1="300.673" x2="276.248" y2="290.081" gradientUnits="userSpaceOnUse">
<stop offset="0.04" stop-color="#FFA98C"/>
<stop offset="0.32" stop-color="#FFB892"/>
<stop offset="0.86" stop-color="#FEE1A3"/>
<stop offset="1" stop-color="#FEECA8"/>
</linearGradient>
<radialGradient id="paint116_radial_26_704" cx="0" cy="0" r="1" gradientUnits="userSpaceOnUse" gradientTransform="translate(275.668 297.138) rotate(-45) scale(8.73001)">
<stop stop-color="white"/>
<stop offset="0.07" stop-color="#D8D8D8"/>
<stop offset="0.16" stop-color="#A6A6A6"/>
<stop offset="0.26" stop-color="#797979"/>
<stop offset="0.37" stop-color="#545454"/>
<stop offset="0.47" stop-color="#353535"/>
<stop offset="0.59" stop-color="#1E1E1E"/>
<stop offset="0.7" stop-color="#0D0D0D"/>
<stop offset="0.84" stop-color="#030303"/>
<stop offset="1"/>
</radialGradient>
<linearGradient id="paint117_linear_26_704" x1="363.1" y1="251.45" x2="360.94" y2="247.72" gradientUnits="userSpaceOnUse">
<stop offset="0.01" stop-color="#F9B595"/>
<stop offset="0.13" stop-color="#FBC59C"/>
<stop offset="0.18" stop-color="#F9BA97"/>
<stop offset="0.25" stop-color="#F8AE92"/>
<stop offset="0.33" stop-color="#F7AA90"/>
<stop offset="0.43" stop-color="#F8B394"/>
<stop offset="0.59" stop-color="#FCCB9D"/>
<stop offset="0.73" stop-color="#FFE4A7"/>
<stop offset="0.97" stop-color="#F7AA90"/>
</linearGradient>
<linearGradient id="paint118_linear_26_704" x1="351.4" y1="254.99" x2="353.89" y2="254.99" gradientUnits="userSpaceOnUse">
<stop offset="0.04" stop-color="#FFA98C"/>
<stop offset="0.32" stop-color="#FFB892"/>
<stop offset="0.86" stop-color="#FEE1A3"/>
<stop offset="1" stop-color="#FEECA8"/>
</linearGradient>
<linearGradient id="paint119_linear_26_704" x1="314.39" y1="279.88" x2="312.3" y2="276.26" gradientUnits="userSpaceOnUse">
<stop offset="0.04" stop-color="#1E1F21"/>
<stop offset="0.12" stop-color="#2D2E30"/>
<stop offset="0.14" stop-color="#323336"/>
<stop offset="0.27" stop-color="#0E0E0F"/>
<stop offset="0.35" stop-color="#131415"/>
<stop offset="0.46" stop-color="#232326"/>
<stop offset="0.59" stop-color="#3C3D41"/>
<stop offset="0.73" stop-color="#5E6167"/>
<stop offset="0.77" stop-color="#696C73"/>
<stop offset="1" stop-color="#37383C"/>
</linearGradient>
<linearGradient id="paint120_linear_26_704" x1="273.618" y1="304.364" x2="273.879" y2="299.733" gradientUnits="userSpaceOnUse">
<stop offset="0.04" stop-color="#1E1F21"/>
<stop offset="0.31" stop-color="#2C2E30"/>
<stop offset="0.84" stop-color="#515359"/>
<stop offset="1" stop-color="#5D6066"/>
</linearGradient>
<linearGradient id="paint121_linear_26_704" x1="278.2" y1="292.725" x2="272.578" y2="291.219" gradientUnits="userSpaceOnUse">
<stop offset="0.04" stop-color="#FFA98C"/>
<stop offset="0.32" stop-color="#FFB892"/>
<stop offset="0.86" stop-color="#FEE1A3"/>
<stop offset="1" stop-color="#FEECA8"/>
</linearGradient>
<linearGradient id="paint122_linear_26_704" x1="276.68" y1="293.38" x2="315.2" y2="281.84" gradientUnits="userSpaceOnUse">
<stop offset="0.04" stop-color="#FFA98C"/>
<stop offset="0.32" stop-color="#FFB892"/>
<stop offset="0.86" stop-color="#FEE1A3"/>
<stop offset="1" stop-color="#FEECA8"/>
</linearGradient>
<radialGradient id="paint123_radial_26_704" cx="0" cy="0" r="1" gradientUnits="userSpaceOnUse" gradientTransform="translate(274.749 292.98) rotate(-45) scale(6.3)">
<stop stop-color="white"/>
<stop offset="0.07" stop-color="#D8D8D8"/>
<stop offset="0.16" stop-color="#A6A6A6"/>
<stop offset="0.26" stop-color="#797979"/>
<stop offset="0.37" stop-color="#545454"/>
<stop offset="0.47" stop-color="#353535"/>
<stop offset="0.59" stop-color="#1E1E1E"/>
<stop offset="0.7" stop-color="#0D0D0D"/>
<stop offset="0.84" stop-color="#030303"/>
<stop offset="1"/>
</radialGradient>
<linearGradient id="paint124_linear_26_704" x1="286.112" y1="304.555" x2="285.292" y2="300.115" gradientUnits="userSpaceOnUse">
<stop offset="0.04" stop-color="#FFA98C"/>
<stop offset="0.32" stop-color="#FFB892"/>
<stop offset="0.86" stop-color="#FEE1A3"/>
<stop offset="1" stop-color="#FEECA8"/>
</linearGradient>
<linearGradient id="paint125_linear_26_704" x1="283.355" y1="293.298" x2="288.828" y2="304.838" gradientUnits="userSpaceOnUse">
<stop offset="0.04" stop-color="#FFA98C"/>
<stop offset="0.32" stop-color="#FFB892"/>
<stop offset="0.86" stop-color="#FEE1A3"/>
<stop offset="1" stop-color="#FEECA8"/>
</linearGradient>
<radialGradient id="paint126_radial_26_704" cx="0" cy="0" r="1" gradientUnits="userSpaceOnUse" gradientTransform="translate(277.945 306.358) rotate(-45) scale(5.49)">
<stop stop-color="white"/>
<stop offset="0.07" stop-color="#D8D8D8"/>
<stop offset="0.16" stop-color="#A6A6A6"/>
<stop offset="0.26" stop-color="#797979"/>
<stop offset="0.37" stop-color="#545454"/>
<stop offset="0.47" stop-color="#353535"/>
<stop offset="0.59" stop-color="#1E1E1E"/>
<stop offset="0.7" stop-color="#0D0D0D"/>
<stop offset="0.84" stop-color="#030303"/>
<stop offset="1"/>
</radialGradient>
<radialGradient id="paint127_radial_26_704" cx="0" cy="0" r="1" gradientUnits="userSpaceOnUse" gradientTransform="translate(373.274 337.268) rotate(-30.6064) scale(15.3271 1.62505)">
<stop stop-color="#972A74"/>
<stop offset="0.04" stop-color="#8A266A"/>
<stop offset="0.19" stop-color="#601B4A"/>
<stop offset="0.35" stop-color="#3D112F"/>
<stop offset="0.51" stop-color="#230A1B"/>
<stop offset="0.67" stop-color="#0F040C"/>
<stop offset="0.83" stop-color="#040103"/>
<stop offset="1"/>
</radialGradient>
</defs>
</svg>
